{"glyphs":{"0":{"ha":929,"x_min":69,"x_max":860,"o":"m 464 -19 l 464 -19 q 252 44 340 -19 q 117 225 164 107 q 69 510 69 343 l 69 510 q 117 794 69 676 q 252 976 164 913 q 464 1039 340 1039 l 464 1039 q 677 976 589 1039 q 813 794 765 913 q 860 510 860 676 l 860 510 q 813 225 860 343 q 677 44 765 107 q 464 -19 589 -19 z m 464 164 l 464 164 q 612 249 558 164 q 665 510 665 333 l 665 510 q 612 772 665 688 q 464 856 558 856 l 464 856 q 317 772 371 856 q 264 510 264 688 l 264 510 q 317 249 264 333 q 464 164 371 164 z "},"1":{"ha":597,"x_min":38,"x_max":468,"o":"m 450 0 l 299 0 q 281 18 281 0 l 281 18 l 281 769 l 94 696 q 71 706 79 689 l 71 706 l 44 756 q 50 781 38 771 l 50 781 l 319 1011 q 342 1019 328 1019 l 342 1019 l 450 1019 q 468 1001 468 1019 l 468 1001 l 468 18 q 450 0 468 0 l 450 0 z "},"2":{"ha":856,"x_min":56,"x_max":783,"o":"m 765 0 l 96 0 q 78 18 78 0 l 78 18 l 78 64 q 86 86 78 76 l 86 86 l 338 369 q 474 532 426 469 q 540 640 522 594 q 558 729 558 685 l 558 729 q 518 822 558 788 q 410 856 478 856 l 410 856 q 238 722 286 856 l 238 722 q 215 710 232 706 l 215 710 l 74 749 q 61 771 56 753 l 61 771 q 195 967 101 896 q 419 1039 289 1039 l 419 1039 q 594 1003 519 1039 q 711 901 669 967 q 753 749 753 836 l 753 749 q 741 649 753 697 q 699 545 729 600 q 615 422 669 490 q 474 263 560 354 l 474 263 l 393 176 l 765 176 q 783 158 783 176 l 783 158 l 783 18 q 765 0 783 0 l 765 0 z "},"3":{"ha":858,"x_min":53,"x_max":789,"o":"m 419 -19 l 419 -19 q 188 53 283 -19 q 57 250 93 125 l 57 250 q 71 272 53 268 l 71 272 l 211 310 q 233 297 228 314 l 233 297 q 301 201 256 238 q 419 164 346 164 l 419 164 q 547 204 500 164 q 594 311 594 244 l 594 311 q 544 413 594 378 q 408 449 493 449 l 408 449 l 365 449 q 347 467 347 449 l 347 467 l 347 590 q 365 608 347 608 l 365 608 l 408 608 q 524 642 479 608 q 568 728 568 675 l 568 728 q 525 819 568 783 q 415 856 482 856 l 415 856 q 307 819 350 856 q 242 722 264 782 l 242 722 q 219 710 236 706 l 219 710 l 79 747 q 65 769 61 751 l 65 769 q 195 967 101 894 q 419 1039 289 1039 l 419 1039 q 596 1003 518 1039 q 718 905 674 967 q 763 763 763 843 l 763 763 q 720 628 763 688 q 603 533 678 568 l 603 533 q 740 440 690 504 q 789 285 789 376 l 789 285 q 742 126 789 194 q 613 19 696 57 q 419 -19 529 -19 z "},"4":{"ha":917,"x_min":36,"x_max":875,"o":"m 707 0 l 556 0 q 538 18 538 0 l 538 18 l 538 197 l 54 197 q 36 215 36 197 l 36 215 l 36 261 q 43 283 36 275 l 43 283 l 581 1008 q 603 1019 589 1019 l 603 1019 l 707 1019 q 725 1001 725 1019 l 725 1001 l 725 374 l 857 374 q 875 356 875 374 l 875 356 l 875 215 q 857 197 875 197 l 857 197 l 725 197 l 725 18 q 707 0 725 0 l 707 0 z m 538 694 l 306 374 l 538 374 l 538 694 z "},"5":{"ha":858,"x_min":61,"x_max":803,"o":"m 440 -19 l 440 -19 q 205 53 303 -19 q 68 254 107 126 l 68 254 q 81 276 61 272 l 81 276 l 217 310 q 239 297 233 314 l 239 297 q 431 164 289 164 l 431 164 q 561 208 513 164 q 610 329 610 253 l 610 329 q 561 455 610 408 q 429 501 513 501 l 429 501 q 330 484 378 501 q 225 424 282 467 l 225 424 q 200 422 213 415 l 200 422 l 119 460 q 107 482 104 467 l 107 482 l 154 1003 q 172 1019 156 1019 l 172 1019 l 731 1019 q 749 1001 749 1019 l 749 1001 l 749 861 q 731 843 749 843 l 731 843 l 296 843 l 272 592 q 485 664 361 664 l 485 664 q 651 622 579 664 q 763 504 722 579 q 803 328 803 429 l 803 328 q 757 147 803 225 q 629 24 711 68 q 440 -19 547 -19 z "},"6":{"ha":846,"x_min":54,"x_max":796,"o":"m 425 -19 l 425 -19 q 231 26 315 -19 q 101 153 147 72 q 54 338 54 235 l 54 338 q 72 460 54 400 q 128 594 89 521 q 235 765 168 667 l 235 765 l 401 1008 q 424 1019 408 1019 l 424 1019 l 599 1019 q 613 1013 610 1019 q 610 997 617 1006 l 610 997 l 360 643 q 476 665 413 665 l 476 665 q 642 623 571 665 q 755 504 714 581 q 796 328 796 428 l 796 328 q 749 147 796 225 q 619 24 703 68 q 425 -19 536 -19 z m 424 164 l 424 164 q 550 210 501 164 q 599 333 599 257 l 599 333 q 550 456 599 410 q 424 503 501 503 l 424 503 q 298 456 347 503 q 249 333 249 410 l 249 333 q 298 210 249 257 q 424 164 347 164 z "},"7":{"ha":807,"x_min":42,"x_max":760,"o":"m 343 0 l 169 0 q 156 6 160 0 q 156 21 151 11 l 156 21 l 515 843 l 60 843 q 42 861 42 843 l 42 861 l 42 1001 q 60 1019 42 1019 l 60 1019 l 742 1019 q 760 1001 760 1019 l 760 1001 l 760 954 q 756 932 760 943 l 756 932 l 364 14 q 343 0 357 0 l 343 0 z "},"8":{"ha":892,"x_min":63,"x_max":829,"o":"m 446 -19 l 446 -19 q 246 19 332 -19 q 111 125 160 57 q 63 283 63 193 l 63 283 q 113 436 63 368 q 250 536 163 504 l 250 536 q 132 631 175 569 q 89 764 89 692 l 89 764 q 134 908 89 846 q 260 1004 179 969 q 446 1039 340 1039 l 446 1039 q 632 1004 551 1039 q 758 908 713 969 q 803 764 803 846 l 803 764 q 760 631 803 692 q 642 536 717 569 l 642 536 q 779 436 729 504 q 829 283 829 368 l 829 283 q 781 125 829 193 q 646 19 732 57 q 446 -19 560 -19 z m 446 600 l 446 600 q 565 638 519 600 q 610 738 610 676 l 610 738 q 565 833 610 794 q 446 871 519 871 l 446 871 q 328 833 374 871 q 282 738 282 794 l 282 738 q 328 638 282 676 q 446 600 374 600 z m 446 149 l 446 149 q 584 194 531 149 q 638 307 638 239 l 638 307 q 584 417 638 374 q 446 460 531 460 l 446 460 q 308 417 361 460 q 254 307 254 374 l 254 307 q 308 194 254 239 q 446 149 361 149 z "},"9":{"ha":844,"x_min":49,"x_max":790,"o":"m 407 0 l 233 0 q 220 6 224 0 q 222 22 217 13 l 222 22 l 479 375 q 368 354 428 354 l 368 354 q 203 397 275 354 q 90 516 131 440 q 49 692 49 592 l 49 692 q 95 874 49 796 q 226 995 142 951 q 419 1039 310 1039 l 419 1039 q 614 993 531 1039 q 744 867 697 947 q 790 682 790 786 l 790 682 q 774 559 790 621 q 717 424 757 497 q 606 254 676 351 l 606 254 l 429 11 q 407 0 421 0 l 407 0 z m 421 517 l 421 517 q 547 563 499 517 q 596 686 596 610 l 596 686 q 547 809 596 763 q 421 856 499 856 l 421 856 q 295 809 344 856 q 246 686 246 763 l 246 686 q 295 563 246 610 q 421 517 344 517 z "},"\u0000":{"ha":0,"x_min":null,"x_max":null,"o":""},"\r":{"ha":306,"x_min":null,"x_max":null,"o":""}," ":{"ha":306,"x_min":null,"x_max":null,"o":""},".":{"ha":375,"x_min":75,"x_max":300,"o":"m 188 -14 l 188 -14 q 108 17 140 -14 q 75 96 75 49 l 75 96 q 108 175 75 144 q 188 206 140 206 l 188 206 q 268 175 236 206 q 300 96 300 144 l 300 96 q 268 17 300 49 q 188 -14 236 -14 z "},":":{"ha":375,"x_min":75,"x_max":300,"o":"m 188 503 l 188 503 q 108 534 140 503 q 75 613 75 565 l 75 613 q 108 692 75 661 q 188 722 140 722 l 188 722 q 268 692 236 722 q 300 613 300 661 l 300 613 q 268 534 300 565 q 188 503 236 503 z m 188 -14 l 188 -14 q 108 17 140 -14 q 75 96 75 49 l 75 96 q 108 175 75 144 q 188 206 140 206 l 188 206 q 268 175 236 206 q 300 96 300 144 l 300 96 q 268 17 300 49 q 188 -14 236 -14 z "},",":{"ha":375,"x_min":54,"x_max":300,"o":"m 163 -225 l 76 -225 q 61 -204 54 -225 l 61 -204 l 129 0 q 90 39 104 14 q 75 96 75 64 l 75 96 q 108 175 75 144 q 188 206 140 206 l 188 206 q 268 175 236 206 q 300 96 300 144 l 300 96 q 288 28 300 65 q 239 -87 275 -8 l 239 -87 l 183 -211 q 163 -225 176 -225 l 163 -225 z "},";":{"ha":375,"x_min":54,"x_max":300,"o":"m 163 -225 l 76 -225 q 61 -204 54 -225 l 61 -204 l 129 0 q 90 39 104 14 q 75 96 75 64 l 75 96 q 108 175 75 144 q 188 206 140 206 l 188 206 q 268 175 236 206 q 300 96 300 144 l 300 96 q 288 28 300 65 q 239 -87 275 -8 l 239 -87 l 183 -211 q 163 -225 176 -225 l 163 -225 z m 188 503 l 188 503 q 108 534 140 503 q 75 613 75 565 l 75 613 q 108 692 75 661 q 188 722 140 722 l 188 722 q 268 692 236 722 q 300 613 300 661 l 300 613 q 268 534 300 565 q 188 503 236 503 z "},"?":{"ha":774,"x_min":28,"x_max":717,"o":"m 415 281 l 281 281 q 263 299 263 281 l 263 299 l 257 546 q 275 564 257 564 l 275 564 l 325 564 q 475 608 428 564 q 522 719 522 651 l 522 719 q 484 819 522 782 q 376 856 446 856 l 376 856 q 279 826 318 856 q 217 746 240 797 l 217 746 q 193 735 208 731 l 193 735 l 47 772 q 35 794 28 776 l 35 794 q 168 974 75 910 q 390 1039 261 1039 l 390 1039 q 560 1001 486 1039 q 675 897 633 964 q 717 738 717 829 l 717 738 q 684 590 717 658 q 589 474 651 521 q 436 411 526 426 l 436 411 l 433 299 q 415 281 433 281 l 415 281 z m 347 -14 l 347 -14 q 268 16 300 -14 q 236 93 236 46 l 236 93 q 268 170 236 142 q 347 199 300 199 l 347 199 q 426 170 394 199 q 458 93 458 142 l 458 93 q 426 16 458 46 q 347 -14 394 -14 z "},"!":{"ha":361,"x_min":68,"x_max":293,"o":"m 236 310 l 119 310 q 101 328 101 310 l 101 328 l 88 1000 q 106 1018 88 1018 l 106 1018 l 250 1018 q 268 1000 268 1018 l 268 1000 l 254 328 q 236 310 254 310 l 236 310 z m 181 -14 l 181 -14 q 101 17 133 -14 q 68 96 68 49 l 68 96 q 101 175 68 144 q 181 206 133 206 l 181 206 q 261 175 229 206 q 293 96 293 144 l 293 96 q 261 17 293 49 q 181 -14 229 -14 z "},"'":{"ha":375,"x_min":101,"x_max":274,"o":"m 235 638 l 140 638 q 121 656 121 638 l 121 656 l 101 1001 q 118 1019 101 1019 l 118 1019 l 257 1019 q 274 1001 274 1019 l 274 1001 l 254 656 q 235 638 254 638 l 235 638 z "},"\"":{"ha":640,"x_min":101,"x_max":539,"o":"m 235 638 l 140 638 q 121 656 121 638 l 121 656 l 101 1001 q 118 1019 101 1019 l 118 1019 l 257 1019 q 274 1001 274 1019 l 274 1001 l 254 656 q 235 638 254 638 l 235 638 z m 500 638 l 406 638 q 386 656 386 638 l 386 656 l 367 1001 q 383 1019 367 1019 l 383 1019 l 522 1019 q 539 1001 539 1019 l 539 1001 l 519 656 q 500 638 519 638 l 500 638 z "},"‘":{"ha":375,"x_min":74,"x_max":294,"o":"m 178 622 l 178 622 q 103 649 132 622 q 74 719 74 676 l 74 719 q 86 789 74 750 q 129 893 99 828 l 129 893 l 182 1006 q 204 1019 189 1019 l 204 1019 l 272 1019 q 288 999 294 1019 l 288 999 l 224 811 q 267 776 251 800 q 283 721 283 753 l 283 721 q 254 650 283 678 q 178 622 225 622 z "},"’":{"ha":375,"x_min":81,"x_max":301,"o":"m 171 639 l 103 639 q 88 660 81 639 l 88 660 l 151 847 q 108 882 124 858 q 92 938 92 906 l 92 938 q 121 1008 92 981 q 197 1036 150 1036 l 197 1036 q 272 1010 243 1036 q 301 939 301 983 l 301 939 q 290 869 301 908 q 246 765 278 831 l 246 765 l 193 653 q 171 639 186 639 l 171 639 z "},"“":{"ha":640,"x_min":74,"x_max":560,"o":"m 178 622 l 178 622 q 103 649 132 622 q 74 719 74 676 l 74 719 q 86 789 74 750 q 129 893 99 828 l 129 893 l 182 1006 q 204 1019 189 1019 l 204 1019 l 272 1019 q 288 999 294 1019 l 288 999 l 224 811 q 267 776 251 800 q 283 721 283 753 l 283 721 q 254 650 283 678 q 178 622 225 622 z m 443 622 l 443 622 q 368 649 397 622 q 339 719 339 676 l 339 719 q 351 789 339 750 q 394 893 364 828 l 394 893 l 447 1006 q 469 1019 454 1019 l 469 1019 l 538 1019 q 553 999 560 1019 l 553 999 l 489 811 q 533 776 517 800 q 549 721 549 753 l 549 721 q 519 650 549 678 q 443 622 490 622 z "},"”":{"ha":640,"x_min":81,"x_max":567,"o":"m 171 639 l 103 639 q 88 660 81 639 l 88 660 l 151 847 q 108 882 124 858 q 92 938 92 906 l 92 938 q 121 1008 92 981 q 197 1036 150 1036 l 197 1036 q 272 1010 243 1036 q 301 939 301 983 l 301 939 q 290 869 301 908 q 246 765 278 831 l 246 765 l 193 653 q 171 639 186 639 l 171 639 z m 436 639 l 368 639 q 353 660 346 639 l 353 660 l 417 847 q 373 882 389 858 q 357 938 357 906 l 357 938 q 386 1008 357 981 q 463 1036 415 1036 l 463 1036 q 538 1010 508 1036 q 567 939 567 983 l 567 939 q 555 869 567 908 q 511 765 543 831 l 511 765 l 458 653 q 436 639 451 639 l 436 639 z "},"…":{"ha":1389,"x_min":111,"x_max":1278,"o":"m 224 -14 l 224 -14 q 144 17 176 -14 q 111 96 111 49 l 111 96 q 144 175 111 144 q 224 206 176 206 l 224 206 q 304 175 272 206 q 336 96 336 144 l 336 96 q 304 17 336 49 q 224 -14 272 -14 z m 693 -14 l 693 -14 q 613 17 646 -14 q 581 96 581 49 l 581 96 q 613 175 581 144 q 693 206 646 206 l 693 206 q 774 175 742 206 q 806 96 806 144 l 806 96 q 774 17 806 49 q 693 -14 742 -14 z m 1165 -14 l 1165 -14 q 1085 17 1118 -14 q 1053 96 1053 49 l 1053 96 q 1085 175 1053 144 q 1165 206 1118 206 l 1165 206 q 1246 175 1214 206 q 1278 96 1278 144 l 1278 96 q 1246 17 1278 49 q 1165 -14 1214 -14 z "}," ":{"ha":306,"x_min":null,"x_max":null,"o":""}," ":{"ha":694,"x_min":null,"x_max":null,"o":""}," ":{"ha":1389,"x_min":null,"x_max":null,"o":""}," ":{"ha":694,"x_min":null,"x_max":null,"o":""}," ":{"ha":1389,"x_min":null,"x_max":null,"o":""}," ":{"ha":463,"x_min":null,"x_max":null,"o":""}," ":{"ha":347,"x_min":null,"x_max":null,"o":""}," ":{"ha":232,"x_min":null,"x_max":null,"o":""}," ":{"ha":833,"x_min":null,"x_max":null,"o":""}," ":{"ha":375,"x_min":null,"x_max":null,"o":""}," ":{"ha":278,"x_min":null,"x_max":null,"o":""}," ":{"ha":231,"x_min":null,"x_max":null,"o":""},"​":{"ha":0,"x_min":null,"x_max":null,"o":""},"﻿":{"ha":0,"x_min":null,"x_max":null,"o":""},"⁄":{"ha":167,"x_min":-328,"x_max":496,"o":"m -171 0 l -310 0 q -324 6 -319 0 q -322 22 -328 13 l -322 22 l 315 1007 q 338 1019 324 1019 l 338 1019 l 476 1019 q 492 1013 488 1019 q 489 997 496 1007 l 489 997 l -149 13 q -171 0 -157 0 l -171 0 z "},"%":{"ha":1294,"x_min":35,"x_max":1260,"o":"m 400 0 l 261 0 q 247 6 251 0 q 249 22 243 13 l 249 22 l 886 1007 q 908 1019 894 1019 l 908 1019 l 1047 1019 q 1063 1013 1058 1019 q 1060 997 1067 1007 l 1060 997 l 422 13 q 400 0 414 0 l 400 0 z m 1013 -14 l 1013 -14 q 832 64 899 -14 q 765 279 765 142 l 765 279 q 832 494 765 417 q 1013 572 899 572 l 1013 572 q 1194 494 1128 572 q 1260 279 1260 417 l 1260 279 q 1194 64 1260 142 q 1013 -14 1128 -14 z m 1013 111 l 1013 111 q 1107 279 1107 111 l 1107 279 q 1013 447 1107 447 l 1013 447 q 918 279 918 447 l 918 279 q 1013 111 918 111 z m 282 447 l 282 447 q 101 525 168 447 q 35 740 35 603 l 35 740 q 101 956 35 878 q 282 1033 168 1033 l 282 1033 q 463 956 397 1033 q 529 740 529 878 l 529 740 q 463 525 529 603 q 282 447 397 447 z m 282 572 l 282 572 q 376 740 376 572 l 376 740 q 282 908 376 908 l 282 908 q 188 740 188 908 l 188 740 q 282 572 188 572 z "},"‰":{"ha":1851,"x_min":35,"x_max":1817,"o":"m 400 0 l 261 0 q 247 6 251 0 q 249 22 243 13 l 249 22 l 886 1007 q 908 1019 894 1019 l 908 1019 l 1047 1019 q 1063 1013 1058 1019 q 1060 997 1067 1007 l 1060 997 l 422 13 q 400 0 414 0 l 400 0 z m 1013 -14 l 1013 -14 q 832 64 899 -14 q 765 279 765 142 l 765 279 q 832 494 765 417 q 1013 572 899 572 l 1013 572 q 1194 494 1128 572 q 1260 279 1260 417 l 1260 279 q 1194 64 1260 142 q 1013 -14 1128 -14 z m 1013 111 l 1013 111 q 1107 279 1107 111 l 1107 279 q 1013 447 1107 447 l 1013 447 q 918 279 918 447 l 918 279 q 1013 111 918 111 z m 1569 -14 l 1569 -14 q 1389 64 1456 -14 q 1322 279 1322 142 l 1322 279 q 1389 494 1322 417 q 1569 572 1456 572 l 1569 572 q 1751 494 1685 572 q 1817 279 1817 417 l 1817 279 q 1751 64 1817 142 q 1569 -14 1685 -14 z m 1569 111 l 1569 111 q 1664 279 1664 111 l 1664 279 q 1569 447 1664 447 l 1569 447 q 1475 279 1475 447 l 1475 279 q 1569 111 1475 111 z m 282 447 l 282 447 q 101 525 168 447 q 35 740 35 603 l 35 740 q 101 956 35 878 q 282 1033 168 1033 l 282 1033 q 463 956 397 1033 q 529 740 529 878 l 529 740 q 463 525 529 603 q 282 447 397 447 z m 282 572 l 282 572 q 376 740 376 572 l 376 740 q 282 908 376 908 l 282 908 q 188 740 188 908 l 188 740 q 282 572 188 572 z "},"½":{"ha":1294,"x_min":94,"x_max":1221,"o":"m 378 0 l 239 0 q 225 6 229 0 q 226 22 221 13 l 226 22 l 864 1007 q 886 1019 872 1019 l 886 1019 l 1025 1019 q 1040 1013 1036 1019 q 1038 997 1044 1007 l 1038 997 l 400 13 q 378 0 392 0 l 378 0 z m 1203 0 l 822 0 q 804 18 804 0 l 804 18 l 804 42 q 813 64 804 56 l 813 64 l 968 224 q 1044 322 1025 282 q 1063 392 1063 361 l 1063 392 q 1046 433 1063 419 q 1004 447 1029 447 l 1004 447 q 928 392 953 447 l 928 392 q 906 379 921 375 l 906 379 l 814 400 q 801 422 794 404 l 801 422 q 882 532 825 492 q 1013 572 939 572 l 1013 572 q 1158 527 1101 572 q 1215 404 1215 482 l 1215 404 q 1195 316 1215 358 q 1144 237 1175 274 q 1082 168 1114 200 l 1082 168 l 1035 121 l 1203 121 q 1221 103 1221 121 l 1221 103 l 1221 18 q 1203 0 1221 0 l 1203 0 z m 374 461 l 264 461 q 246 479 246 461 l 246 479 l 246 854 l 140 813 q 117 822 124 806 l 117 822 l 100 857 q 107 882 94 871 l 107 882 l 282 1013 q 304 1019 290 1019 l 304 1019 l 374 1019 q 392 1001 392 1019 l 392 1001 l 392 479 q 374 461 392 461 l 374 461 z "},"¼":{"ha":1294,"x_min":94,"x_max":1251,"o":"m 433 0 l 294 0 q 281 6 285 0 q 282 22 276 13 l 282 22 l 919 1007 q 942 1019 928 1019 l 942 1019 l 1081 1019 q 1096 1013 1092 1019 q 1093 997 1100 1007 l 1093 997 l 456 13 q 433 0 447 0 l 433 0 z m 1167 0 l 1058 0 q 1040 18 1040 0 l 1040 18 l 1040 99 l 779 99 q 761 117 761 99 l 761 117 l 761 140 q 768 163 761 154 l 768 163 l 1060 547 q 1082 558 1068 558 l 1082 558 l 1167 558 q 1185 540 1185 558 l 1185 540 l 1185 210 l 1233 210 q 1251 192 1251 210 l 1251 192 l 1251 117 q 1233 99 1251 99 l 1233 99 l 1185 99 l 1185 18 q 1167 0 1185 0 l 1167 0 z m 1040 368 l 919 210 l 1040 210 l 1040 368 z m 374 461 l 264 461 q 246 479 246 461 l 246 479 l 246 854 l 140 813 q 117 822 124 806 l 117 822 l 100 857 q 107 882 94 871 l 107 882 l 282 1013 q 304 1019 290 1019 l 304 1019 l 374 1019 q 392 1001 392 1019 l 392 1001 l 392 479 q 374 461 392 461 l 374 461 z "},"¾":{"ha":1294,"x_min":44,"x_max":1251,"o":"m 433 0 l 294 0 q 281 6 285 0 q 282 22 276 13 l 282 22 l 919 1007 q 942 1019 928 1019 l 942 1019 l 1081 1019 q 1096 1013 1092 1019 q 1093 997 1100 1007 l 1093 997 l 456 13 q 433 0 447 0 l 433 0 z m 1167 0 l 1058 0 q 1040 18 1040 0 l 1040 18 l 1040 99 l 779 99 q 761 117 761 99 l 761 117 l 761 140 q 768 163 761 154 l 768 163 l 1060 547 q 1082 558 1068 558 l 1082 558 l 1167 558 q 1185 540 1185 558 l 1185 540 l 1185 210 l 1233 210 q 1251 192 1251 210 l 1251 192 l 1251 117 q 1233 99 1251 99 l 1233 99 l 1185 99 l 1185 18 q 1167 0 1185 0 l 1167 0 z m 1040 368 l 919 210 l 1040 210 l 1040 368 z m 281 447 l 281 447 q 126 494 179 447 q 51 604 72 540 l 51 604 q 64 626 44 622 l 64 626 l 150 647 q 174 636 165 651 l 174 636 q 212 590 188 608 q 272 572 236 572 l 272 572 q 324 588 303 572 q 346 633 346 603 l 346 633 q 325 681 346 664 q 264 699 304 699 l 264 699 l 242 699 q 224 717 224 699 l 224 717 l 224 790 q 242 808 224 808 l 242 808 l 264 808 q 338 863 338 808 l 338 863 q 317 897 338 885 q 271 908 297 908 l 271 908 q 194 864 219 908 l 194 864 q 171 853 186 849 l 171 853 l 81 874 q 68 896 61 878 l 68 896 q 147 997 89 960 q 278 1033 206 1033 l 278 1033 q 426 992 369 1033 q 483 881 483 951 l 483 881 q 463 808 483 842 q 404 754 442 775 l 404 754 q 472 704 447 738 q 497 619 497 671 l 497 619 q 467 529 497 568 q 387 469 436 490 q 281 447 338 447 z "},"$":{"ha":828,"x_min":43,"x_max":760,"o":"m 476 -90 l 374 -90 q 356 -72 356 -90 l 356 -72 l 356 44 q 166 116 244 57 q 50 274 88 175 l 50 274 q 63 297 43 292 l 63 297 l 192 333 q 214 321 208 338 l 214 321 q 356 211 251 229 l 356 211 l 356 442 l 342 446 q 83 713 83 515 l 83 713 q 118 834 83 779 q 214 924 153 889 q 356 969 275 960 l 356 969 l 356 1088 q 374 1106 356 1106 l 374 1106 l 476 1106 q 494 1088 494 1106 l 494 1088 l 494 968 q 754 756 694 936 l 754 756 q 742 733 760 738 l 742 733 l 607 696 q 585 708 590 692 l 585 708 q 494 797 557 775 l 494 797 l 494 589 l 496 589 q 751 308 751 518 l 751 308 q 681 138 751 208 q 494 49 610 68 l 494 49 l 494 -72 q 476 -90 494 -90 l 476 -90 z m 271 719 l 271 719 q 290 667 271 688 q 356 629 308 646 l 356 629 l 356 804 q 293 773 315 794 q 271 719 271 751 z m 565 310 l 565 310 q 494 400 565 367 l 494 400 l 494 217 q 565 310 565 239 z "},"¢":{"ha":806,"x_min":53,"x_max":767,"o":"m 472 0 l 369 0 q 351 18 351 0 l 351 18 l 351 133 q 133 254 213 154 q 53 501 53 354 l 53 501 q 133 749 53 649 q 351 869 213 849 l 351 869 l 351 1001 q 369 1019 351 1019 l 369 1019 l 472 1019 q 490 1001 490 1019 l 490 1001 l 490 871 q 649 807 583 857 q 747 667 714 757 l 747 667 q 735 643 754 649 l 735 643 l 615 608 q 592 619 600 604 l 592 619 q 490 704 557 685 l 490 704 l 490 299 q 593 388 560 319 l 593 388 q 617 399 601 403 l 617 399 l 749 367 q 760 344 767 363 l 760 344 q 654 198 724 250 q 490 132 585 146 l 490 132 l 490 18 q 472 0 490 0 l 472 0 z m 239 501 l 239 501 q 267 383 239 436 q 351 307 294 329 l 351 307 l 351 696 q 267 620 294 674 q 239 501 239 567 z "},"£":{"ha":883,"x_min":76,"x_max":835,"o":"m 788 0 l 106 0 q 88 18 88 0 l 88 18 l 88 63 q 94 85 88 74 l 94 85 q 168 224 144 163 q 192 361 192 286 l 192 361 q 188 418 192 389 l 188 418 l 94 418 q 76 436 76 418 l 76 436 l 76 539 q 94 557 76 557 l 94 557 l 161 557 q 144 643 151 597 q 138 742 138 689 l 138 742 q 179 896 138 829 q 297 1001 221 963 q 471 1039 372 1039 l 471 1039 q 697 967 603 1039 q 829 771 790 896 l 829 771 q 817 749 835 753 l 817 749 l 675 710 q 653 722 658 706 l 653 722 q 481 856 604 856 l 481 856 q 372 818 413 856 q 332 701 332 781 l 332 701 q 339 631 332 667 q 356 557 346 594 l 356 557 l 582 557 q 600 539 600 557 l 600 539 l 600 436 q 582 418 600 418 l 582 418 l 376 418 q 365 300 376 358 q 321 176 353 242 l 321 176 l 788 176 q 806 158 806 176 l 806 158 l 806 18 q 788 0 806 0 l 788 0 z "},"¥":{"ha":988,"x_min":25,"x_max":963,"o":"m 400 181 l 183 181 q 165 199 165 181 l 165 199 l 165 274 q 183 292 165 292 l 183 292 l 400 292 l 400 381 l 183 381 q 165 399 165 381 l 165 399 l 165 474 q 183 492 165 492 l 183 492 l 336 492 l 31 997 q 29 1013 25 1007 q 43 1019 33 1019 l 43 1019 l 218 1019 q 239 1007 233 1019 l 239 1007 l 496 557 l 751 1007 q 772 1019 758 1019 l 772 1019 l 944 1019 q 959 1013 956 1019 q 957 997 963 1007 l 957 997 l 650 492 l 806 492 q 824 474 824 492 l 824 474 l 824 399 q 806 381 824 381 l 806 381 l 588 381 l 588 292 l 806 292 q 824 274 824 292 l 824 274 l 824 199 q 806 181 824 181 l 806 181 l 588 181 l 588 18 q 569 0 588 0 l 569 0 l 418 0 q 400 18 400 0 l 400 18 l 400 181 z "},"€":{"ha":996,"x_min":33,"x_max":933,"o":"m 136 364 l 51 364 q 33 382 33 364 l 33 382 l 33 457 q 51 475 33 475 l 51 475 l 125 475 q 125 510 125 492 l 125 510 q 125 544 125 528 l 125 544 l 51 544 q 33 563 33 544 l 33 563 l 33 638 q 51 656 33 656 l 51 656 l 136 656 q 272 938 167 838 q 542 1039 376 1039 l 542 1039 q 767 974 674 1039 q 910 793 860 910 l 910 793 q 899 769 917 775 l 899 769 l 756 728 q 732 739 740 724 l 732 739 q 542 856 669 856 l 542 856 q 410 806 464 856 q 333 656 356 757 l 333 656 l 613 656 q 631 638 631 656 l 631 638 l 631 563 q 613 544 631 544 l 613 544 l 319 544 q 319 510 319 528 l 319 510 q 319 475 319 492 l 319 475 l 613 475 q 631 457 631 475 l 631 457 l 631 382 q 613 364 631 364 l 613 364 l 333 364 q 410 213 356 263 q 542 164 464 164 l 542 164 q 661 199 610 164 q 743 308 713 233 l 743 308 q 767 321 751 325 l 767 321 l 914 281 q 926 257 933 275 l 926 257 q 778 56 879 131 q 542 -19 678 -19 l 542 -19 q 272 81 376 -19 q 136 364 167 182 l 136 364 z "},"¤":{"ha":821,"x_min":46,"x_max":775,"o":"m 132 197 l 132 197 l 60 264 q 58 290 46 278 l 58 290 l 150 386 q 111 536 111 451 l 111 536 q 150 688 111 621 l 150 688 l 58 783 q 60 810 46 796 l 60 810 l 132 876 q 158 875 146 890 l 158 875 l 246 781 q 410 822 317 822 l 410 822 q 575 781 503 822 l 575 781 l 663 875 q 689 876 675 890 l 689 876 l 761 810 q 763 783 775 796 l 763 783 l 669 686 q 708 536 708 621 l 708 536 q 671 388 708 453 l 671 388 l 763 290 q 761 264 775 278 l 761 264 l 689 197 q 663 199 675 183 l 663 199 l 575 292 q 410 250 504 250 l 410 250 q 244 292 317 250 l 244 292 l 158 199 q 132 197 146 183 z m 410 389 l 410 389 q 515 429 475 389 q 556 536 556 469 l 556 536 q 515 643 556 603 q 410 683 475 683 l 410 683 q 305 643 346 683 q 264 536 264 603 l 264 536 q 305 429 264 469 q 410 389 346 389 z "},"^":{"ha":833,"x_min":75,"x_max":758,"o":"m 243 478 l 93 478 q 79 484 83 478 q 81 500 75 490 l 81 500 l 358 1007 q 379 1019 365 1019 l 379 1019 l 454 1019 q 475 1007 469 1019 l 475 1007 l 753 500 q 755 484 758 490 q 740 478 751 478 l 740 478 l 594 478 q 572 490 578 478 l 572 490 l 419 792 l 265 490 q 243 478 260 478 l 243 478 z "},"+":{"ha":833,"x_min":88,"x_max":746,"o":"m 486 124 l 347 124 q 329 142 329 124 l 329 142 l 329 368 l 106 368 q 88 386 88 368 l 88 386 l 88 521 q 106 539 88 539 l 106 539 l 329 539 l 329 765 q 347 783 329 783 l 347 783 l 486 783 q 504 765 504 783 l 504 765 l 504 539 l 728 539 q 746 521 746 539 l 746 521 l 746 386 q 728 368 746 368 l 728 368 l 504 368 l 504 142 q 486 124 504 124 l 486 124 z "},"−":{"ha":833,"x_min":88,"x_max":746,"o":"m 728 367 l 106 367 q 88 385 88 367 l 88 385 l 88 519 q 106 538 88 538 l 106 538 l 728 538 q 746 519 746 538 l 746 519 l 746 385 q 728 367 746 367 l 728 367 z "},"=":{"ha":833,"x_min":88,"x_max":746,"o":"m 728 188 l 106 188 q 88 206 88 188 l 88 206 l 88 340 q 106 358 88 358 l 106 358 l 728 358 q 746 340 746 358 l 746 340 l 746 206 q 728 188 746 188 l 728 188 z m 728 544 l 106 544 q 88 563 88 544 l 88 563 l 88 697 q 106 715 88 715 l 106 715 l 728 715 q 746 697 746 715 l 746 697 l 746 563 q 728 544 746 544 l 728 544 z "},"÷":{"ha":833,"x_min":88,"x_max":746,"o":"m 417 614 l 417 614 q 341 643 372 614 q 310 718 310 672 l 310 718 q 341 792 310 764 q 417 821 372 821 l 417 821 q 494 792 463 821 q 525 718 525 764 l 525 718 q 494 643 525 672 q 417 614 463 614 z m 728 367 l 106 367 q 88 385 88 367 l 88 385 l 88 519 q 106 538 88 538 l 106 538 l 728 538 q 746 519 746 538 l 746 519 l 746 385 q 728 367 746 367 l 728 367 z m 417 83 l 417 83 q 341 113 372 83 q 310 189 310 142 l 310 189 q 341 262 310 233 q 417 290 372 290 l 417 290 q 494 262 463 290 q 525 189 525 233 l 525 189 q 494 113 525 142 q 417 83 463 83 z "},"<":{"ha":833,"x_min":97,"x_max":696,"o":"m 696 269 l 696 118 q 675 106 696 96 l 675 106 l 110 386 q 97 408 97 393 l 97 408 l 97 481 q 110 503 97 497 l 110 503 l 675 783 q 696 771 696 794 l 696 771 l 696 622 q 682 600 696 607 l 682 600 l 360 446 l 682 292 q 696 269 696 285 l 696 269 z "},">":{"ha":833,"x_min":138,"x_max":736,"o":"m 724 386 l 158 106 q 138 118 138 96 l 138 118 l 138 267 q 151 289 138 282 l 151 289 l 474 443 l 151 597 q 138 619 138 604 l 138 619 l 138 771 q 158 783 138 793 l 158 783 l 724 503 q 736 481 736 497 l 736 481 l 736 408 q 724 386 736 393 l 724 386 z "},"~":{"ha":833,"x_min":56,"x_max":779,"o":"m 569 268 l 569 268 q 481 285 518 268 q 415 327 443 301 q 366 378 388 353 q 324 419 344 403 q 279 436 303 436 l 279 436 q 208 304 215 436 l 208 304 q 190 286 208 286 l 190 286 l 74 286 q 56 304 56 286 l 56 304 q 113 531 58 451 q 265 611 168 611 l 265 611 q 354 594 317 611 q 419 552 392 578 q 469 501 447 526 q 511 460 490 476 q 556 443 532 443 l 556 443 q 626 575 619 443 l 626 575 q 644 593 626 593 l 644 593 l 761 593 q 779 565 779 593 l 779 565 q 720 345 774 422 q 569 268 667 268 z "},"¬":{"ha":833,"x_min":71,"x_max":701,"o":"m 683 157 l 549 157 q 526 175 526 157 l 526 175 l 526 408 l 89 408 q 71 426 71 408 l 71 426 l 71 561 q 89 579 71 579 l 89 579 l 683 579 q 701 561 701 579 l 701 561 l 701 175 q 683 157 701 157 l 683 157 z "},"×":{"ha":833,"x_min":108,"x_max":732,"o":"m 200 153 l 200 153 l 115 238 q 110 251 111 242 q 115 265 110 260 l 115 265 l 301 451 l 114 639 q 108 653 108 644 q 114 668 108 663 l 114 668 l 203 758 q 231 758 218 771 l 231 758 l 419 568 l 606 754 q 619 760 611 760 q 633 756 628 760 l 633 756 l 717 669 q 717 642 732 654 l 717 642 l 532 457 l 719 268 q 726 254 726 263 q 719 240 726 246 l 719 240 l 631 151 q 601 151 617 138 l 601 151 l 414 339 l 228 153 q 214 147 222 147 q 200 153 206 147 z "},"_":{"ha":786,"x_min":56,"x_max":731,"o":"m 713 -250 l 74 -250 q 62 -244 68 -250 q 56 -231 56 -239 l 56 -231 l 56 -99 q 62 -85 56 -92 q 74 -79 68 -79 l 74 -79 l 713 -79 q 725 -85 719 -79 q 731 -99 731 -92 l 731 -99 l 731 -231 q 713 -250 731 -250 l 713 -250 z "},"§":{"ha":740,"x_min":75,"x_max":653,"o":"m 340 -149 l 340 -149 q 176 -107 242 -149 q 82 24 110 -65 l 82 24 q 94 46 75 42 l 94 46 l 217 75 q 240 64 232 79 l 240 64 q 277 17 256 31 q 329 3 299 3 l 329 3 q 392 24 368 3 q 415 76 415 46 l 415 76 q 408 124 415 99 q 390 174 401 149 l 390 174 q 365 172 378 172 l 365 172 q 215 208 279 172 q 114 304 150 243 q 78 444 78 365 l 78 444 q 108 574 78 517 q 190 667 138 631 l 190 667 q 140 824 140 750 l 140 824 q 170 932 140 883 q 256 1010 200 981 q 388 1039 311 1039 l 388 1039 q 553 997 486 1039 q 646 867 619 956 l 646 867 q 633 844 653 849 l 633 844 l 511 815 q 488 826 496 811 l 488 826 q 450 874 471 860 q 399 888 429 888 l 399 888 q 336 866 360 888 q 313 814 313 844 l 313 814 q 320 765 313 790 q 339 715 328 740 l 339 715 q 365 717 351 717 l 365 717 q 516 681 451 717 q 617 585 581 646 q 653 444 653 524 l 653 444 q 623 315 653 372 q 539 221 593 257 l 539 221 q 588 67 588 140 l 588 67 q 558 -42 588 7 q 472 -119 528 -90 q 340 -149 417 -149 z m 365 308 l 365 308 q 461 346 424 308 q 499 444 499 383 l 499 444 q 461 543 499 506 q 365 581 424 581 l 365 581 q 269 543 307 581 q 232 444 232 506 l 232 444 q 269 346 232 383 q 365 308 307 308 z "},"¶":{"ha":867,"x_min":61,"x_max":742,"o":"m 510 -125 l 407 -125 q 389 -107 389 -125 l 389 -107 l 389 314 q 226 361 301 319 q 106 480 151 403 q 61 667 61 557 l 61 667 q 110 860 61 782 q 240 979 160 939 q 411 1019 319 1019 l 411 1019 l 724 1019 q 742 1001 742 1019 l 742 1001 l 742 -107 q 724 -125 742 -125 l 724 -125 l 621 -125 q 603 -107 603 -125 l 603 -107 l 603 892 l 528 892 l 528 -107 q 510 -125 528 -125 l 510 -125 z "},"#":{"ha":1074,"x_min":56,"x_max":1018,"o":"m 297 0 l 179 0 q 163 19 158 0 l 163 19 l 214 246 l 76 246 q 60 265 56 246 l 60 265 l 85 379 q 104 396 89 396 l 104 396 l 249 396 l 301 626 l 164 626 q 147 646 143 626 l 147 646 l 172 760 q 192 776 176 776 l 192 776 l 335 776 l 386 1001 q 407 1017 390 1017 l 407 1017 l 525 1017 q 542 997 546 1017 l 542 997 l 492 776 l 703 776 l 754 1001 q 775 1017 758 1017 l 775 1017 l 893 1017 q 910 997 914 1017 l 910 997 l 860 776 l 997 776 q 1014 757 1018 776 l 1014 757 l 989 643 q 969 626 985 626 l 969 626 l 825 626 l 772 396 l 910 396 q 926 376 931 396 l 926 376 l 901 263 q 882 246 897 246 l 882 246 l 738 246 l 685 15 q 664 0 681 0 l 664 0 l 547 0 q 531 19 526 0 l 531 19 l 582 246 l 371 246 l 318 15 q 297 0 314 0 l 297 0 z m 457 626 l 404 396 l 617 396 l 669 626 l 457 626 z "},"|":{"ha":419,"x_min":119,"x_max":300,"o":"m 282 -153 l 138 -153 q 119 -135 119 -153 l 119 -135 l 119 1024 q 138 1042 119 1042 l 138 1042 l 282 1042 q 300 1024 300 1042 l 300 1024 l 300 -135 q 282 -153 300 -153 l 282 -153 z "},"†":{"ha":678,"x_min":63,"x_max":615,"o":"m 411 -125 l 267 -125 q 249 -107 249 -125 l 249 -107 l 249 601 l 81 601 q 63 619 63 601 l 63 619 l 63 744 q 81 763 63 763 l 81 763 l 249 763 l 249 1001 q 267 1019 249 1019 l 267 1019 l 411 1019 q 429 1001 429 1019 l 429 1001 l 429 763 l 597 763 q 615 744 615 763 l 615 744 l 615 619 q 597 601 615 601 l 597 601 l 429 601 l 429 -107 q 411 -125 429 -125 l 411 -125 z "},"‡":{"ha":678,"x_min":63,"x_max":615,"o":"m 249 146 l 81 146 q 63 164 63 146 l 63 164 l 63 289 q 81 307 63 307 l 81 307 l 249 307 l 249 601 l 81 601 q 63 619 63 601 l 63 619 l 63 744 q 81 763 63 763 l 81 763 l 249 763 l 249 1001 q 267 1019 249 1019 l 267 1019 l 411 1019 q 429 1001 429 1019 l 429 1001 l 429 763 l 597 763 q 615 744 615 763 l 615 744 l 615 619 q 597 601 615 601 l 597 601 l 429 601 l 429 307 l 597 307 q 615 289 615 307 l 615 289 l 615 164 q 597 146 615 146 l 597 146 l 429 146 l 429 -107 q 411 -125 429 -125 l 411 -125 l 267 -125 q 249 -107 249 -125 l 249 -107 l 249 146 z "},"&":{"ha":1003,"x_min":75,"x_max":963,"o":"m 482 -19 l 482 -19 q 263 20 354 -19 q 124 129 172 60 q 75 285 75 199 l 75 285 q 122 442 75 378 q 263 536 169 507 l 263 536 q 144 628 182 568 q 106 764 106 689 l 106 764 q 151 906 106 843 q 276 1003 197 968 q 456 1039 356 1039 l 456 1039 q 682 972 589 1039 q 806 792 775 906 l 806 792 q 792 769 810 774 l 792 769 l 643 739 q 621 751 626 735 l 621 751 q 560 842 603 810 q 456 875 517 875 l 456 875 q 344 835 388 875 q 300 735 300 796 l 300 735 q 334 645 300 682 q 432 608 368 608 l 432 608 l 483 608 q 501 590 501 608 l 501 590 l 501 467 q 483 449 501 449 l 483 449 l 438 449 q 313 410 357 449 q 269 307 269 372 l 269 307 q 322 191 269 238 q 482 144 375 144 l 482 144 q 656 192 603 144 q 710 318 710 239 l 710 318 q 699 377 710 347 q 670 428 689 407 q 624 449 651 449 l 624 449 l 614 449 q 604 467 604 449 l 604 467 l 604 590 q 622 608 604 608 l 622 608 l 944 608 q 963 590 963 608 l 963 590 l 963 467 q 944 449 963 449 l 944 449 l 840 449 q 878 379 864 419 q 892 294 892 339 l 892 294 q 844 133 892 204 q 706 21 797 61 q 482 -19 614 -19 z "},"*":{"ha":685,"x_min":58,"x_max":626,"o":"m 171 499 l 171 499 l 126 531 q 121 556 113 542 l 121 556 l 221 726 l 71 822 q 65 847 58 831 l 65 847 l 90 897 q 114 906 97 913 l 114 906 l 275 843 l 294 1003 q 314 1019 297 1019 l 314 1019 l 371 1019 q 390 1003 389 1019 l 390 1003 l 410 843 l 571 906 q 594 897 588 913 l 594 897 l 619 847 q 614 822 626 831 l 614 822 l 464 726 l 564 556 q 558 531 572 542 l 558 531 l 514 499 q 489 501 500 490 l 489 501 l 343 650 l 196 501 q 171 499 185 490 z "},"°":{"ha":594,"x_min":78,"x_max":517,"o":"m 297 622 l 297 622 q 139 680 200 622 q 78 831 78 738 l 78 831 q 139 981 78 924 q 297 1039 200 1039 l 297 1039 q 456 981 394 1039 q 517 831 517 924 l 517 831 q 456 680 517 738 q 297 622 394 622 z m 297 731 l 297 731 q 367 758 340 731 q 394 831 394 785 l 394 831 q 367 903 394 876 q 297 931 340 931 l 297 931 q 227 903 254 931 q 200 831 200 876 l 200 831 q 227 758 200 785 q 297 731 254 731 z "},"-":{"ha":646,"x_min":97,"x_max":549,"o":"m 531 367 l 115 367 q 97 385 97 367 l 97 385 l 97 519 q 115 538 97 538 l 115 538 l 531 538 q 549 519 549 538 l 549 519 l 549 385 q 531 367 549 367 l 531 367 z "},"‐":{"ha":646,"x_min":97,"x_max":549,"o":"m 531 367 l 115 367 q 97 385 97 367 l 97 385 l 97 519 q 115 538 97 538 l 115 538 l 531 538 q 549 519 549 538 l 549 519 l 549 385 q 531 367 549 367 l 531 367 z "},"‑":{"ha":646,"x_min":97,"x_max":549,"o":"m 531 367 l 115 367 q 97 385 97 367 l 97 385 l 97 519 q 115 538 97 538 l 115 538 l 531 538 q 549 519 549 538 l 549 519 l 549 385 q 531 367 549 367 l 531 367 z "},"­":{"ha":646,"x_min":97,"x_max":549,"o":"m 531 367 l 115 367 q 97 385 97 367 l 97 385 l 97 519 q 115 538 97 538 l 115 538 l 531 538 q 549 519 549 538 l 549 519 l 549 385 q 531 367 549 367 l 531 367 z "},"–":{"ha":694,"x_min":0,"x_max":694,"o":"m 676 367 l 18 367 q 0 385 0 367 l 0 385 l 0 519 q 18 538 0 538 l 18 538 l 676 538 q 694 519 694 538 l 694 519 l 694 385 q 676 367 694 367 l 676 367 z "},"—":{"ha":1389,"x_min":0,"x_max":1389,"o":"m 1371 367 l 18 367 q 0 385 0 367 l 0 385 l 0 519 q 18 538 0 538 l 18 538 l 1371 538 q 1389 519 1389 538 l 1389 519 l 1389 385 q 1371 367 1389 367 l 1371 367 z "},"(":{"ha":547,"x_min":69,"x_max":519,"o":"m 501 -207 l 501 -207 q 174 -26 279 -193 q 69 444 69 142 l 69 444 q 174 915 69 747 q 501 1096 279 1082 l 501 1096 q 519 1079 519 1099 l 519 1079 l 519 944 q 503 925 519 928 l 503 925 q 319 796 376 911 q 261 444 261 681 l 261 444 q 319 93 261 208 q 503 -36 376 -22 l 503 -36 q 519 -56 519 -37 l 519 -56 l 519 -190 q 501 -207 519 -210 z "},")":{"ha":547,"x_min":28,"x_max":478,"o":"m 46 -207 l 46 -207 q 28 -190 28 -210 l 28 -190 l 28 -56 q 44 -36 28 -37 l 44 -36 q 229 93 172 -22 q 286 444 286 208 l 286 444 q 229 796 286 681 q 44 925 172 911 l 44 925 q 28 944 28 928 l 28 944 l 28 1079 q 46 1096 28 1099 l 46 1096 q 373 915 268 1082 q 478 444 478 747 l 478 444 q 373 -26 478 142 q 46 -207 268 -193 z "},"/":{"ha":583,"x_min":38,"x_max":546,"o":"m 200 -153 l 57 -153 q 42 -132 38 -153 l 42 -132 l 364 1026 q 383 1042 368 1042 l 383 1042 l 526 1042 q 542 1021 546 1042 l 542 1021 l 219 -137 q 200 -153 215 -153 l 200 -153 z "},"\\":{"ha":583,"x_min":38,"x_max":546,"o":"m 526 -153 l 526 -153 l 383 -153 q 364 -137 368 -153 l 364 -137 l 42 1021 q 57 1042 38 1042 l 57 1042 l 200 1042 q 219 1026 215 1042 l 219 1026 l 542 -132 q 526 -153 546 -153 z "},"[":{"ha":483,"x_min":94,"x_max":456,"o":"m 438 -208 l 113 -208 q 94 -190 94 -208 l 94 -190 l 94 1079 q 113 1097 94 1097 l 113 1097 l 438 1097 q 456 1079 456 1097 l 456 1079 l 456 949 q 438 931 456 931 l 438 931 l 278 931 l 278 -42 l 438 -42 q 456 -60 456 -42 l 456 -60 l 456 -190 q 438 -208 456 -208 l 438 -208 z "},"]":{"ha":483,"x_min":28,"x_max":389,"o":"m 371 -208 l 46 -208 q 28 -190 28 -208 l 28 -190 l 28 -60 q 46 -42 28 -42 l 46 -42 l 206 -42 l 206 931 l 46 931 q 28 949 28 931 l 28 949 l 28 1079 q 46 1097 28 1097 l 46 1097 l 371 1097 q 389 1079 389 1097 l 389 1079 l 389 -190 q 371 -208 389 -208 l 371 -208 z "},"{":{"ha":583,"x_min":67,"x_max":556,"o":"m 538 -208 l 515 -208 q 342 -176 417 -208 q 225 -74 267 -144 q 183 113 183 -3 l 183 113 l 183 288 q 171 349 183 333 q 129 365 158 365 l 129 365 l 85 365 q 67 383 67 365 l 67 383 l 67 506 q 85 524 67 524 l 85 524 l 129 524 q 171 540 158 524 q 183 601 183 556 l 183 601 l 183 776 q 225 963 183 893 q 342 1065 267 1033 q 515 1097 417 1097 l 515 1097 l 538 1097 q 556 1079 556 1097 l 556 1079 l 556 949 q 538 931 556 931 l 538 931 l 531 931 q 364 767 364 931 l 364 767 l 364 565 q 347 487 364 518 q 292 444 329 456 l 292 444 q 364 324 364 422 l 364 324 l 364 122 q 531 -42 364 -42 l 531 -42 l 538 -42 q 556 -60 556 -42 l 556 -60 l 556 -190 q 538 -208 556 -208 l 538 -208 z "},"}":{"ha":583,"x_min":28,"x_max":517,"o":"m 68 -208 l 46 -208 q 28 -190 28 -208 l 28 -190 l 28 -60 q 46 -42 28 -42 l 46 -42 l 53 -42 q 219 122 219 -42 l 219 122 l 219 324 q 237 402 219 371 q 292 444 254 433 l 292 444 q 219 565 219 467 l 219 565 l 219 767 q 53 931 219 931 l 53 931 l 46 931 q 28 949 28 931 l 28 949 l 28 1079 q 46 1097 28 1097 l 46 1097 l 68 1097 q 242 1065 167 1097 q 358 963 317 1033 q 400 776 400 893 l 400 776 l 400 601 q 413 540 400 556 q 454 524 425 524 l 454 524 l 499 524 q 517 506 517 524 l 517 506 l 517 383 q 499 365 517 365 l 499 365 l 454 365 q 413 349 425 365 q 400 288 400 333 l 400 288 l 400 113 q 358 -74 400 -3 q 242 -176 317 -144 q 68 -208 167 -208 l 68 -208 z "},"•":{"ha":561,"x_min":108,"x_max":453,"o":"m 281 256 l 281 256 q 194 279 233 256 q 132 342 156 303 q 108 428 108 381 l 108 428 q 132 514 108 475 q 194 576 156 553 q 281 600 233 600 l 281 600 q 367 576 328 600 q 429 514 406 553 q 453 428 453 475 l 453 428 q 429 342 453 381 q 367 279 406 303 q 281 256 328 256 z "},"@":{"ha":1443,"x_min":78,"x_max":1365,"o":"m 715 -311 l 715 -311 q 451 -265 568 -311 q 250 -135 333 -219 q 122 63 167 -51 q 78 315 78 178 l 78 315 q 126 579 78 461 q 261 782 174 697 q 469 912 349 867 q 733 957 589 957 l 733 957 q 1069 882 928 957 q 1288 673 1211 807 q 1365 363 1365 539 l 1365 363 q 1330 165 1365 250 q 1232 33 1294 81 q 1088 -14 1169 -14 l 1088 -14 q 969 22 1019 -14 q 907 122 919 57 l 907 122 q 814 23 875 60 q 678 -14 753 -14 l 678 -14 q 517 28 586 -14 q 408 147 447 71 q 369 321 369 222 l 369 321 q 408 496 369 421 q 517 613 447 571 q 678 656 586 656 l 678 656 q 801 626 744 656 q 892 546 857 597 l 892 546 l 894 624 q 913 642 894 642 l 913 642 l 1015 642 q 1033 624 1033 642 l 1033 624 l 1033 229 q 1113 129 1033 129 l 1113 129 q 1185 194 1157 129 q 1213 363 1213 258 l 1213 363 q 1153 611 1213 510 q 988 765 1094 713 q 733 817 881 817 l 733 817 q 478 762 592 817 q 297 596 364 707 q 231 315 231 485 l 231 315 q 296 43 231 151 q 477 -118 361 -65 q 742 -171 593 -171 l 742 -171 q 900 -157 832 -171 l 900 -157 q 919 -174 919 -153 l 919 -174 l 919 -272 q 907 -292 919 -289 l 907 -292 q 819 -306 865 -301 q 715 -311 772 -311 z m 708 132 l 708 132 q 835 185 786 132 q 883 321 883 238 l 883 321 q 835 457 883 404 q 708 510 786 510 l 708 510 q 583 457 632 510 q 533 321 533 404 l 533 321 q 583 185 533 238 q 708 132 632 132 z "},"·":{"ha":463,"x_min":128,"x_max":353,"o":"m 240 361 l 240 361 q 160 392 193 361 q 128 471 128 424 l 128 471 q 160 550 128 519 q 240 581 193 581 l 240 581 q 321 550 289 581 q 353 471 353 519 l 353 471 q 321 392 353 424 q 240 361 289 361 z "},"A":{"ha":1046,"x_min":26,"x_max":1019,"o":"m 217 0 l 44 0 q 31 6 35 0 q 31 21 26 11 l 31 21 l 438 1006 q 458 1019 443 1019 l 458 1019 l 588 1019 q 608 1006 603 1019 l 608 1006 l 1015 21 q 1015 6 1019 11 q 1001 0 1011 0 l 1001 0 l 826 0 q 806 14 811 0 l 806 14 l 733 204 l 310 204 l 238 14 q 217 0 232 0 l 217 0 z m 521 764 l 375 378 l 667 378 l 521 764 z "},"B":{"ha":953,"x_min":111,"x_max":885,"o":"m 493 0 l 129 0 q 111 18 111 0 l 111 18 l 111 1001 q 129 1019 111 1019 l 129 1019 l 479 1019 q 680 985 601 1019 q 796 892 758 951 q 833 757 833 833 l 833 757 q 798 622 833 682 q 693 535 763 563 l 693 535 q 837 444 789 508 q 885 292 885 379 l 885 292 q 792 78 885 157 q 493 0 700 0 l 493 0 z m 472 844 l 472 844 l 299 844 l 299 608 l 472 608 q 597 638 553 608 q 642 726 642 668 l 642 726 q 597 814 642 783 q 472 844 553 844 z m 499 439 l 499 439 l 299 439 l 299 175 l 499 175 q 642 210 593 175 q 690 308 690 244 l 690 308 q 499 439 690 439 z "},"C":{"ha":1107,"x_min":78,"x_max":1040,"o":"m 575 -19 l 575 -19 q 314 46 426 -19 q 140 231 201 111 q 78 510 78 350 l 78 510 q 142 790 78 671 q 319 974 207 908 q 578 1039 432 1039 l 578 1039 q 851 967 739 1039 q 1014 765 963 896 l 1014 765 q 1003 742 1021 746 l 1003 742 l 854 700 q 832 711 839 696 l 832 711 q 731 818 796 781 q 581 856 667 856 l 581 856 q 353 761 435 856 q 272 510 272 667 l 272 510 q 354 258 272 353 q 581 164 436 164 l 581 164 q 749 210 679 164 q 854 353 819 257 l 854 353 q 876 365 860 369 l 876 365 l 1024 324 q 1036 306 1040 319 l 1036 306 q 948 137 1010 210 q 793 22 886 64 q 575 -19 700 -19 z "},"D":{"ha":1061,"x_min":111,"x_max":983,"o":"m 468 0 l 129 0 q 111 18 111 0 l 111 18 l 111 1001 q 129 1019 111 1019 l 129 1019 l 468 1019 q 853 885 722 1019 q 983 510 983 750 l 983 510 q 853 135 983 271 q 468 0 722 0 l 468 0 z m 447 843 l 447 843 l 299 843 l 299 176 l 447 176 q 703 263 617 176 q 789 510 789 350 l 789 510 q 703 757 789 671 q 447 843 617 843 z "},"E":{"ha":861,"x_min":111,"x_max":808,"o":"m 790 0 l 129 0 q 111 18 111 0 l 111 18 l 111 1001 q 129 1019 111 1019 l 129 1019 l 774 1019 q 792 1001 792 1019 l 792 1001 l 792 861 q 774 843 792 843 l 774 843 l 299 843 l 299 611 l 728 611 q 746 593 746 611 l 746 593 l 746 456 q 728 438 746 438 l 728 438 l 299 438 l 299 176 l 790 176 q 808 158 808 176 l 808 158 l 808 18 q 790 0 808 0 l 790 0 z "},"F":{"ha":815,"x_min":111,"x_max":768,"o":"m 281 0 l 129 0 q 111 18 111 0 l 111 18 l 111 1001 q 129 1019 111 1019 l 129 1019 l 750 1019 q 768 1001 768 1019 l 768 1001 l 768 861 q 750 843 768 843 l 750 843 l 299 843 l 299 579 l 688 579 q 706 561 706 579 l 706 561 l 706 421 q 688 403 706 403 l 688 403 l 299 403 l 299 18 q 281 0 299 0 l 281 0 z "},"G":{"ha":1129,"x_min":78,"x_max":1051,"o":"m 579 -19 l 579 -19 q 317 47 429 -19 q 141 231 204 113 q 78 510 78 350 l 78 510 q 143 788 78 669 q 322 973 208 907 q 582 1039 436 1039 l 582 1039 q 855 967 743 1039 q 1018 765 967 896 l 1018 765 q 1007 742 1025 746 l 1007 742 l 858 700 q 836 711 843 696 l 836 711 q 735 818 800 781 q 585 856 671 856 l 585 856 q 417 813 488 856 q 310 691 347 769 q 272 508 272 613 l 272 508 q 310 327 272 404 q 417 207 347 250 q 585 164 488 164 l 585 164 q 774 222 697 164 q 863 390 851 279 l 863 390 l 608 390 q 590 408 590 390 l 590 408 l 590 546 q 608 564 590 564 l 608 564 l 1033 564 q 1051 546 1051 564 l 1051 546 l 1051 431 q 997 202 1051 304 q 838 40 943 100 q 579 -19 733 -19 z "},"H":{"ha":1069,"x_min":111,"x_max":958,"o":"m 281 0 l 129 0 q 111 18 111 0 l 111 18 l 111 1001 q 129 1019 111 1019 l 129 1019 l 281 1019 q 299 1001 299 1019 l 299 1001 l 299 611 l 771 611 l 771 1001 q 789 1019 771 1019 l 789 1019 l 940 1019 q 958 1001 958 1019 l 958 1001 l 958 18 q 940 0 958 0 l 940 0 l 789 0 q 771 18 771 0 l 771 18 l 771 435 l 299 435 l 299 18 q 281 0 299 0 l 281 0 z "},"I":{"ha":410,"x_min":111,"x_max":299,"o":"m 281 0 l 129 0 q 111 18 111 0 l 111 18 l 111 1001 q 129 1019 111 1019 l 129 1019 l 281 1019 q 299 1001 299 1019 l 299 1001 l 299 18 q 281 0 299 0 l 281 0 z "},"J":{"ha":753,"x_min":10,"x_max":649,"o":"m 319 -19 l 319 -19 q 125 42 206 -19 q 14 218 44 104 l 14 218 q 26 240 10 236 l 26 240 l 169 279 q 192 265 188 283 l 192 265 q 240 191 207 218 q 319 164 272 164 l 319 164 q 431 219 400 164 q 461 365 461 275 l 461 365 l 461 843 l 178 843 q 160 861 160 843 l 160 861 l 160 1001 q 178 1019 160 1019 l 178 1019 l 631 1019 q 649 1001 649 1019 l 649 1001 l 649 346 q 562 67 649 154 q 319 -19 475 -19 z "},"K":{"ha":1007,"x_min":111,"x_max":969,"o":"m 281 0 l 129 0 q 111 18 111 0 l 111 18 l 111 1001 q 129 1019 111 1019 l 129 1019 l 281 1019 q 299 1001 299 1019 l 299 1001 l 299 535 l 707 1010 q 729 1019 715 1019 l 729 1019 l 907 1019 q 921 1013 918 1019 q 917 997 924 1006 l 917 997 l 594 633 l 964 22 q 966 6 969 13 q 951 0 963 0 l 951 0 l 772 0 q 751 13 758 0 l 751 13 l 471 494 l 299 300 l 299 18 q 281 0 299 0 l 281 0 z "},"L":{"ha":850,"x_min":111,"x_max":808,"o":"m 790 0 l 129 0 q 111 18 111 0 l 111 18 l 111 1001 q 129 1019 111 1019 l 129 1019 l 281 1019 q 299 1001 299 1019 l 299 1001 l 299 179 l 790 179 q 808 161 808 179 l 808 161 l 808 18 q 790 0 808 0 l 790 0 z "},"M":{"ha":1317,"x_min":111,"x_max":1206,"o":"m 274 0 l 129 0 q 111 18 111 0 l 111 18 l 111 1001 q 129 1019 111 1019 l 129 1019 l 289 1019 q 310 1007 304 1019 l 310 1007 l 663 421 l 1011 1007 q 1032 1019 1018 1019 l 1032 1019 l 1188 1019 q 1206 1001 1206 1019 l 1206 1001 l 1206 18 q 1188 0 1206 0 l 1188 0 l 1043 0 q 1025 18 1025 0 l 1025 18 l 1025 707 l 726 207 q 706 194 721 194 l 706 194 l 611 194 q 590 207 597 194 l 590 207 l 292 700 l 292 18 q 274 0 292 0 l 274 0 z "},"N":{"ha":1058,"x_min":111,"x_max":947,"o":"m 274 0 l 129 0 q 111 18 111 0 l 111 18 l 111 1001 q 129 1019 111 1019 l 129 1019 l 289 1019 q 311 1007 303 1019 l 311 1007 l 767 303 l 767 1001 q 785 1019 767 1019 l 785 1019 l 929 1019 q 947 1001 947 1019 l 947 1001 l 947 18 q 929 0 947 0 l 929 0 l 771 0 q 749 13 757 0 l 749 13 l 292 718 l 292 18 q 274 0 292 0 l 274 0 z "},"O":{"ha":1183,"x_min":78,"x_max":1106,"o":"m 592 -19 l 592 -19 q 327 47 443 -19 q 144 231 211 113 q 78 510 78 350 l 78 510 q 144 788 78 669 q 327 973 211 907 q 592 1039 443 1039 l 592 1039 q 856 973 740 1039 q 1039 788 972 907 q 1106 510 1106 669 l 1106 510 q 1039 231 1106 350 q 856 47 972 113 q 592 -19 740 -19 z m 592 164 l 592 164 q 762 208 690 164 q 872 331 833 253 q 911 510 911 410 l 911 510 q 872 689 911 611 q 762 811 833 767 q 592 856 690 856 l 592 856 q 422 811 494 856 q 311 689 350 767 q 272 510 272 611 l 272 510 q 311 331 272 410 q 422 208 350 253 q 592 164 494 164 z "},"P":{"ha":903,"x_min":111,"x_max":842,"o":"m 281 0 l 129 0 q 111 18 111 0 l 111 18 l 111 1001 q 129 1019 111 1019 l 129 1019 l 438 1019 q 740 926 639 1019 q 842 664 842 833 l 842 664 q 740 402 842 496 q 438 308 639 308 l 438 308 l 299 308 l 299 18 q 281 0 299 0 l 281 0 z m 431 846 l 431 846 l 299 846 l 299 482 l 431 482 q 591 526 535 482 q 647 668 647 571 l 647 668 q 591 802 647 758 q 431 846 535 846 z "},"Q":{"ha":1194,"x_min":78,"x_max":1117,"o":"m 1099 0 l 599 0 q 319 63 436 0 q 140 242 203 126 q 78 514 78 358 l 78 514 q 141 789 78 671 q 319 973 204 907 q 585 1039 433 1039 l 585 1039 q 847 975 736 1039 q 1019 800 958 911 q 1081 547 1081 689 l 1081 547 q 1034 327 1081 425 q 904 174 988 229 l 904 174 l 1099 174 q 1117 156 1117 174 l 1117 156 l 1117 18 q 1099 0 1117 0 l 1099 0 z m 579 183 l 579 183 q 744 227 676 183 q 849 347 813 271 q 886 521 886 424 l 886 521 q 849 692 886 617 q 744 812 813 768 q 579 856 676 856 l 579 856 q 415 812 483 856 q 309 692 346 768 q 272 519 272 615 l 272 519 q 309 347 272 424 q 415 227 346 271 q 579 183 483 183 z "},"R":{"ha":942,"x_min":111,"x_max":889,"o":"m 281 0 l 129 0 q 111 18 111 0 l 111 18 l 111 1001 q 129 1019 111 1019 l 129 1019 l 438 1019 q 745 928 649 1019 q 842 664 842 838 l 842 664 q 806 494 842 571 q 693 369 769 417 l 693 369 l 883 22 q 885 6 889 13 q 871 0 882 0 l 871 0 l 700 0 q 679 13 686 0 l 679 13 l 515 313 q 438 308 478 308 l 438 308 l 299 308 l 299 18 q 281 0 299 0 l 281 0 z m 431 846 l 431 846 l 299 846 l 299 482 l 431 482 q 594 525 542 482 q 647 664 647 568 l 647 664 q 594 803 647 760 q 431 846 542 846 z "},"S":{"ha":829,"x_min":38,"x_max":782,"o":"m 422 -19 l 422 -19 q 182 49 279 -19 q 44 250 85 118 l 44 250 q 57 272 38 268 l 57 272 l 201 307 q 224 294 218 311 l 224 294 q 298 196 251 228 q 422 164 344 164 l 422 164 q 542 190 496 164 q 588 272 588 215 l 588 272 q 543 362 588 328 q 421 424 499 396 l 421 424 l 331 456 q 139 570 208 497 q 69 753 69 643 l 69 753 q 115 901 69 836 q 238 1002 160 965 q 411 1039 315 1039 l 411 1039 q 631 978 539 1039 q 761 790 722 918 l 761 790 q 749 768 768 772 l 749 768 l 596 729 q 574 742 579 725 l 574 742 q 508 830 549 804 q 411 856 468 856 l 411 856 q 304 829 344 856 q 264 758 264 803 l 264 758 q 306 677 264 711 q 436 613 347 643 l 436 613 l 508 589 q 715 471 647 543 q 782 272 782 399 l 782 272 q 736 122 782 188 q 610 18 690 56 q 422 -19 529 -19 z "},"T":{"ha":935,"x_min":42,"x_max":893,"o":"m 543 0 l 392 0 q 374 18 374 0 l 374 18 l 374 843 l 58 843 q 42 861 42 843 l 42 861 l 42 1001 q 58 1019 42 1019 l 58 1019 l 875 1019 q 893 1001 893 1019 l 893 1001 l 893 861 q 875 843 893 843 l 875 843 l 561 843 l 561 18 q 543 0 561 0 l 543 0 z "},"U":{"ha":1035,"x_min":104,"x_max":931,"o":"m 517 -19 l 517 -19 q 369 3 442 -19 q 235 77 296 26 q 140 211 175 128 q 104 415 104 294 l 104 415 l 104 1001 q 122 1019 104 1019 l 122 1019 l 274 1019 q 292 1001 292 1019 l 292 1001 l 292 449 q 356 231 292 299 q 517 164 421 164 l 517 164 q 631 194 581 164 q 713 286 682 224 q 743 449 743 349 l 743 449 l 743 1001 q 761 1019 743 1019 l 761 1019 l 913 1019 q 931 1001 931 1019 l 931 1001 l 931 415 q 894 211 931 294 q 799 77 858 128 q 665 3 739 26 q 517 -19 592 -19 z "},"V":{"ha":1029,"x_min":26,"x_max":1003,"o":"m 579 0 l 450 0 q 429 14 435 0 l 429 14 l 31 999 q 31 1014 26 1008 q 44 1019 35 1019 l 44 1019 l 219 1019 q 240 1006 236 1019 l 240 1006 l 517 260 l 792 1006 q 813 1019 796 1019 l 813 1019 l 985 1019 q 999 1014 994 1019 q 999 999 1003 1008 l 999 999 l 600 14 q 579 0 594 0 l 579 0 z "},"W":{"ha":1542,"x_min":22,"x_max":1519,"o":"m 533 0 l 406 0 q 385 14 389 0 l 385 14 l 29 999 q 44 1019 22 1019 l 44 1019 l 221 1019 q 240 1004 236 1019 l 240 1004 l 464 317 l 690 1004 q 710 1019 694 1019 l 710 1019 l 835 1019 q 854 1004 850 1019 l 854 1004 l 1081 315 l 1306 1004 q 1325 1019 1310 1019 l 1325 1019 l 1497 1019 q 1513 999 1519 1019 l 1513 999 l 1157 14 q 1136 0 1153 0 l 1136 0 l 1008 0 q 989 15 993 0 l 989 15 l 771 679 l 553 15 q 533 0 549 0 l 533 0 z "},"X":{"ha":946,"x_min":28,"x_max":918,"o":"m 215 0 l 46 0 q 32 6 36 0 q 33 22 28 13 l 33 22 l 356 526 l 56 997 q 54 1013 50 1007 q 68 1019 58 1019 l 68 1019 l 239 1019 q 260 1007 251 1019 l 260 1007 l 475 656 l 688 1007 q 708 1019 694 1019 l 708 1019 l 878 1019 q 892 1013 889 1019 q 890 997 896 1007 l 890 997 l 590 528 l 913 22 q 915 6 918 13 q 900 0 911 0 l 900 0 l 729 0 q 708 13 717 0 l 708 13 l 471 400 l 236 13 q 215 0 231 0 l 215 0 z "},"Y":{"ha":988,"x_min":25,"x_max":963,"o":"m 569 0 l 418 0 q 400 18 400 0 l 400 18 l 400 388 l 31 997 q 29 1013 25 1007 q 43 1019 33 1019 l 43 1019 l 218 1019 q 239 1007 233 1019 l 239 1007 l 496 557 l 751 1007 q 772 1019 758 1019 l 772 1019 l 944 1019 q 959 1013 956 1019 q 957 997 963 1007 l 957 997 l 588 389 l 588 18 q 569 0 588 0 l 569 0 z "},"Z":{"ha":861,"x_min":40,"x_max":811,"o":"m 793 0 l 58 0 q 40 18 40 0 l 40 18 l 40 65 q 47 88 40 76 l 47 88 l 517 843 l 79 843 q 61 861 61 843 l 61 861 l 61 1001 q 79 1019 61 1019 l 79 1019 l 783 1019 q 801 1001 801 1019 l 801 1001 l 801 954 q 794 932 801 943 l 794 932 l 325 176 l 793 176 q 811 158 811 176 l 811 158 l 811 18 q 793 0 811 0 l 793 0 z "},"a":{"ha":890,"x_min":53,"x_max":796,"o":"m 389 -14 l 389 -14 q 210 33 286 -14 q 94 165 135 81 q 53 360 53 250 l 53 360 q 94 555 53 471 q 210 686 135 639 q 389 733 286 733 l 389 733 q 524 703 464 733 q 624 621 585 674 l 624 621 l 628 701 q 647 719 628 719 l 647 719 l 778 719 q 796 701 796 719 l 796 701 l 796 18 q 778 0 796 0 l 778 0 l 647 0 q 628 18 628 0 l 628 18 l 624 99 q 524 16 585 46 q 389 -14 464 -14 z m 433 150 l 433 150 q 574 208 519 150 q 628 360 628 267 l 628 360 q 574 511 628 453 q 433 569 519 569 l 433 569 q 293 511 347 569 q 239 360 239 453 l 239 360 q 293 208 239 267 q 433 150 347 150 z "},"b":{"ha":890,"x_min":94,"x_max":838,"o":"m 501 -14 l 501 -14 q 366 16 426 -14 q 267 99 306 46 l 267 99 l 263 18 q 243 0 263 0 l 243 0 l 113 0 q 94 18 94 0 l 94 18 l 94 1024 q 113 1042 94 1042 l 113 1042 l 257 1042 q 275 1024 275 1042 l 275 1024 l 275 632 q 372 706 314 679 q 501 733 431 733 l 501 733 q 680 686 604 733 q 797 555 756 639 q 838 360 838 471 l 838 360 q 797 165 838 250 q 680 33 756 81 q 501 -14 604 -14 z m 457 150 l 457 150 q 597 208 543 150 q 651 360 651 267 l 651 360 q 597 511 651 453 q 457 569 543 569 l 457 569 q 317 511 371 569 q 263 360 263 453 l 263 360 q 317 208 263 267 q 457 150 371 150 z "},"c":{"ha":803,"x_min":53,"x_max":767,"o":"m 422 -14 l 422 -14 q 226 33 308 -14 q 98 165 143 81 q 53 360 53 250 l 53 360 q 98 555 53 471 q 226 686 143 639 q 421 733 308 733 l 421 733 q 625 683 542 733 q 747 525 708 632 l 747 525 q 735 501 754 507 l 735 501 l 615 467 q 592 478 600 463 l 592 478 q 432 569 544 569 l 432 569 q 324 541 367 569 q 260 465 281 513 q 239 360 239 417 l 239 360 q 260 255 239 303 q 324 178 281 207 q 432 150 367 150 l 432 150 q 593 246 547 150 l 593 246 q 617 257 601 261 l 617 257 l 749 225 q 760 203 767 221 l 760 203 q 629 39 717 92 q 422 -14 542 -14 z "},"d":{"ha":890,"x_min":53,"x_max":796,"o":"m 389 -14 l 389 -14 q 210 33 286 -14 q 94 165 135 81 q 53 360 53 250 l 53 360 q 94 555 53 471 q 210 686 135 639 q 389 733 286 733 l 389 733 q 518 706 460 733 q 615 632 576 679 l 615 632 l 615 1024 q 633 1042 615 1042 l 633 1042 l 778 1042 q 796 1024 796 1042 l 796 1024 l 796 18 q 778 0 796 0 l 778 0 l 647 0 q 628 18 628 0 l 628 18 l 624 99 q 524 16 585 46 q 389 -14 464 -14 z m 433 150 l 433 150 q 574 208 519 150 q 628 360 628 267 l 628 360 q 574 511 628 453 q 433 569 519 569 l 433 569 q 293 511 347 569 q 239 360 239 453 l 239 360 q 293 208 239 267 q 433 150 347 150 z "},"e":{"ha":796,"x_min":53,"x_max":761,"o":"m 417 -14 l 417 -14 q 222 34 304 -14 q 97 167 140 82 q 53 360 53 251 l 53 360 q 97 553 53 469 q 222 685 140 638 q 417 733 304 733 l 417 733 q 605 682 528 733 q 722 538 682 631 q 757 322 761 446 l 757 322 q 738 304 756 304 l 738 304 l 244 304 q 301 188 257 231 q 418 146 346 146 l 418 146 q 576 228 526 146 l 576 228 q 600 236 583 240 l 600 236 l 724 193 q 733 169 742 186 l 733 169 q 601 31 686 75 q 417 -14 517 -14 z m 415 574 l 415 574 q 308 538 351 574 q 247 439 264 503 l 247 439 l 564 439 q 513 538 551 503 q 415 574 474 574 z "},"f":{"ha":558,"x_min":19,"x_max":640,"o":"m 300 0 l 156 0 q 138 18 138 0 l 138 18 l 138 558 l 38 558 q 19 576 19 558 l 19 576 l 19 701 q 38 719 19 719 l 38 719 l 138 719 l 138 765 q 206 974 138 897 q 390 1051 275 1051 l 390 1051 q 633 899 560 1051 l 633 899 q 624 875 640 882 l 624 875 l 511 828 q 488 836 496 821 l 488 836 q 451 876 471 865 q 404 888 432 888 l 404 888 q 341 858 364 888 q 318 768 318 828 l 318 768 l 318 719 l 499 719 q 517 701 517 719 l 517 701 l 517 576 q 499 558 517 558 l 499 558 l 318 558 l 318 18 q 300 0 318 0 l 300 0 z "},"g":{"ha":890,"x_min":53,"x_max":796,"o":"m 415 -317 l 415 -317 q 207 -265 300 -317 q 72 -110 114 -212 l 72 -110 q 82 -87 64 -94 l 82 -87 l 199 -44 q 222 -54 213 -39 l 222 -54 q 293 -126 249 -99 q 410 -153 338 -153 l 410 -153 q 512 -135 465 -153 q 587 -80 558 -118 q 615 22 615 -42 l 615 22 l 615 88 q 518 13 576 40 q 389 -14 460 -14 l 389 -14 q 210 33 286 -14 q 94 165 135 81 q 53 360 53 250 l 53 360 q 94 555 53 471 q 210 686 135 639 q 389 733 286 733 l 389 733 q 524 703 464 733 q 624 621 585 674 l 624 621 l 628 701 q 647 719 628 719 l 647 719 l 778 719 q 796 701 796 719 l 796 701 l 796 40 q 748 -153 796 -74 q 615 -275 700 -233 q 415 -317 529 -317 z m 433 150 l 433 150 q 574 208 519 150 q 628 360 628 267 l 628 360 q 574 511 628 453 q 433 569 519 569 l 433 569 q 293 511 347 569 q 239 360 239 453 l 239 360 q 293 208 239 267 q 433 150 347 150 z "},"h":{"ha":853,"x_min":94,"x_max":764,"o":"m 257 0 l 113 0 q 94 18 94 0 l 94 18 l 94 1024 q 113 1042 94 1042 l 113 1042 l 257 1042 q 275 1024 275 1042 l 275 1024 l 275 631 q 376 708 315 682 q 501 733 436 733 l 501 733 q 695 663 626 733 q 764 468 764 592 l 764 468 l 764 18 q 746 0 764 0 l 746 0 l 601 0 q 583 18 583 0 l 583 18 l 583 394 q 550 527 583 485 q 446 569 517 569 l 446 569 q 363 547 403 569 q 299 481 324 525 q 275 367 275 436 l 275 367 l 275 18 q 257 0 275 0 l 257 0 z "},"i":{"ha":369,"x_min":79,"x_max":290,"o":"m 185 847 l 185 847 q 110 875 140 847 q 79 947 79 903 l 79 947 q 110 1019 79 992 q 185 1047 140 1047 l 185 1047 q 260 1019 229 1047 q 290 947 290 992 l 290 947 q 260 875 290 903 q 185 847 229 847 z m 257 0 l 113 0 q 94 18 94 0 l 94 18 l 94 701 q 113 719 94 719 l 113 719 l 257 719 q 275 701 275 719 l 275 701 l 275 18 q 257 0 275 0 l 257 0 z "},"j":{"ha":369,"x_min":-201,"x_max":290,"o":"m 185 847 l 185 847 q 110 875 140 847 q 79 947 79 903 l 79 947 q 110 1019 79 992 q 185 1047 140 1047 l 185 1047 q 260 1019 229 1047 q 290 947 290 992 l 290 947 q 260 875 290 903 q 185 847 229 847 z m 22 -317 l 22 -317 q -110 -281 -54 -317 q -196 -175 -167 -246 l -196 -175 q -185 -153 -201 -160 l -185 -153 l -71 -110 q -47 -119 -57 -104 l -47 -119 q -24 -144 -39 -136 q 17 -153 -10 -153 l 17 -153 q 76 -125 57 -153 q 94 -36 94 -97 l 94 -36 l 94 701 q 113 719 94 719 l 113 719 l 257 719 q 275 701 275 719 l 275 701 l 275 -21 q 213 -239 275 -161 q 22 -317 150 -317 z "},"k":{"ha":825,"x_min":94,"x_max":788,"o":"m 257 0 l 113 0 q 94 18 94 0 l 94 18 l 94 1024 q 113 1042 94 1042 l 113 1042 l 257 1042 q 275 1024 275 1042 l 275 1024 l 275 439 l 536 710 q 558 719 546 719 l 558 719 l 744 719 q 759 713 756 719 q 754 697 763 706 l 754 697 l 514 461 l 782 22 q 785 6 788 13 q 771 0 782 0 l 771 0 l 599 0 q 578 13 585 0 l 578 13 l 383 332 l 275 226 l 275 18 q 257 0 275 0 l 257 0 z "},"l":{"ha":369,"x_min":94,"x_max":275,"o":"m 257 0 l 113 0 q 94 18 94 0 l 94 18 l 94 1024 q 113 1042 94 1042 l 113 1042 l 257 1042 q 275 1024 275 1042 l 275 1024 l 275 18 q 257 0 275 0 l 257 0 z "},"m":{"ha":1308,"x_min":94,"x_max":1219,"o":"m 257 0 l 113 0 q 94 18 94 0 l 94 18 l 94 701 q 113 719 94 719 l 113 719 l 243 719 q 263 701 263 719 l 263 701 l 267 615 q 366 703 304 674 q 494 733 428 733 l 494 733 q 634 699 576 733 q 721 601 692 665 l 721 601 q 826 700 760 667 q 967 733 893 733 l 967 733 q 1152 663 1085 733 q 1219 468 1219 592 l 1219 468 l 1219 18 q 1201 0 1219 0 l 1201 0 l 1057 0 q 1039 18 1039 0 l 1039 18 l 1039 394 q 911 569 1039 569 l 911 569 q 797 519 847 569 q 747 367 747 469 l 747 367 l 747 18 q 729 0 747 0 l 729 0 l 585 0 q 567 18 567 0 l 567 18 l 567 394 q 439 569 567 569 l 439 569 q 325 519 375 569 q 275 367 275 469 l 275 367 l 275 18 q 257 0 275 0 l 257 0 z "},"n":{"ha":853,"x_min":94,"x_max":764,"o":"m 257 0 l 113 0 q 94 18 94 0 l 94 18 l 94 701 q 113 719 94 719 l 113 719 l 243 719 q 263 701 263 719 l 263 701 l 267 619 q 369 705 307 676 q 501 733 432 733 l 501 733 q 695 663 626 733 q 764 468 764 592 l 764 468 l 764 18 q 746 0 764 0 l 746 0 l 601 0 q 583 18 583 0 l 583 18 l 583 394 q 550 527 583 485 q 446 569 517 569 l 446 569 q 363 547 403 569 q 299 481 324 525 q 275 367 275 436 l 275 367 l 275 18 q 257 0 275 0 l 257 0 z "},"o":{"ha":867,"x_min":53,"x_max":814,"o":"m 433 -14 l 433 -14 q 233 34 318 -14 q 100 167 147 82 q 53 360 53 251 l 53 360 q 100 553 53 469 q 233 685 147 638 q 433 733 318 733 l 433 733 q 634 685 549 733 q 767 553 719 638 q 814 360 814 469 l 814 360 q 767 167 814 251 q 634 34 719 82 q 433 -14 549 -14 z m 433 150 l 433 150 q 574 208 519 150 q 628 360 628 267 l 628 360 q 574 511 628 453 q 433 569 519 569 l 433 569 q 293 511 347 569 q 239 360 239 453 l 239 360 q 293 208 239 267 q 433 150 347 150 z "},"p":{"ha":890,"x_min":94,"x_max":838,"o":"m 257 -303 l 113 -303 q 94 -285 94 -303 l 94 -285 l 94 701 q 113 719 94 719 l 113 719 l 243 719 q 263 701 263 719 l 263 701 l 267 621 q 366 703 306 674 q 501 733 426 733 l 501 733 q 680 686 604 733 q 797 555 756 639 q 838 360 838 471 l 838 360 q 797 165 838 250 q 680 33 756 81 q 501 -14 604 -14 l 501 -14 q 372 13 431 -14 q 275 88 314 40 l 275 88 l 275 -285 q 257 -303 275 -303 l 257 -303 z m 457 150 l 457 150 q 597 208 543 150 q 651 360 651 267 l 651 360 q 597 511 651 453 q 457 569 543 569 l 457 569 q 317 511 371 569 q 263 360 263 453 l 263 360 q 317 208 263 267 q 457 150 371 150 z "},"q":{"ha":890,"x_min":53,"x_max":796,"o":"m 778 -303 l 633 -303 q 615 -285 615 -303 l 615 -285 l 615 88 q 518 13 576 40 q 389 -14 460 -14 l 389 -14 q 210 33 286 -14 q 94 165 135 81 q 53 360 53 250 l 53 360 q 94 555 53 471 q 210 686 135 639 q 389 733 286 733 l 389 733 q 524 703 464 733 q 624 621 585 674 l 624 621 l 628 701 q 647 719 628 719 l 647 719 l 778 719 q 796 701 796 719 l 796 701 l 796 -285 q 778 -303 796 -303 l 778 -303 z m 433 150 l 433 150 q 574 208 519 150 q 628 360 628 267 l 628 360 q 574 511 628 453 q 433 569 519 569 l 433 569 q 293 511 347 569 q 239 360 239 453 l 239 360 q 293 208 239 267 q 433 150 347 150 z "},"r":{"ha":578,"x_min":94,"x_max":550,"o":"m 257 0 l 113 0 q 94 18 94 0 l 94 18 l 94 701 q 113 719 94 719 l 113 719 l 243 719 q 263 701 263 719 l 263 701 l 267 611 q 363 699 303 669 q 486 729 422 729 l 486 729 q 535 725 514 729 l 535 725 q 550 706 550 721 l 550 706 l 550 563 q 531 547 550 544 l 531 547 q 501 551 517 549 q 464 553 485 553 l 464 553 q 372 531 415 553 q 302 469 329 510 q 275 372 275 429 l 275 372 l 275 18 q 257 0 275 0 l 257 0 z "},"s":{"ha":679,"x_min":33,"x_max":638,"o":"m 353 -14 l 353 -14 q 155 35 235 -14 q 40 178 75 85 l 40 178 q 53 200 33 196 l 53 200 l 179 235 q 201 224 194 239 l 201 224 q 263 163 226 181 q 346 146 300 146 l 346 146 q 422 157 392 146 q 451 199 451 168 l 451 199 q 426 237 451 222 q 344 268 401 251 l 344 268 l 310 278 q 126 376 181 314 q 71 522 71 439 l 71 522 q 106 631 71 583 q 202 706 140 679 q 344 733 264 733 l 344 733 q 521 689 449 733 q 626 553 593 644 l 626 553 q 615 531 633 535 l 615 531 l 489 490 q 465 500 474 485 l 465 500 q 417 553 447 533 q 342 574 388 574 l 342 574 q 282 562 307 574 q 257 522 257 550 l 257 522 q 283 481 257 497 q 368 450 308 465 l 368 450 l 401 442 q 585 351 533 408 q 638 203 638 293 l 638 203 q 601 88 638 138 q 500 13 564 39 q 353 -14 436 -14 z "},"t":{"ha":594,"x_min":10,"x_max":600,"o":"m 375 -14 l 375 -14 q 196 59 258 -14 q 133 278 133 132 l 133 278 l 133 558 l 28 558 q 10 576 10 558 l 10 576 l 10 701 q 28 719 10 719 l 28 719 l 133 719 l 133 913 q 151 931 133 931 l 151 931 l 296 931 q 314 913 314 931 l 314 913 l 314 719 l 485 719 q 503 701 503 719 l 503 701 l 503 576 q 485 558 503 558 l 485 558 l 314 558 l 314 267 q 394 150 314 150 l 394 150 q 449 185 429 150 l 449 185 q 474 193 458 201 l 474 193 l 582 144 q 588 115 600 136 l 588 115 q 492 15 549 44 q 375 -14 436 -14 z "},"u":{"ha":853,"x_min":89,"x_max":758,"o":"m 351 -14 l 351 -14 q 158 57 226 -14 q 89 251 89 128 l 89 251 l 89 701 q 107 719 89 719 l 107 719 l 251 719 q 269 701 269 719 l 269 701 l 269 325 q 303 193 269 236 q 407 150 336 150 l 407 150 q 490 172 451 150 q 553 240 529 194 q 578 353 578 285 l 578 353 l 578 701 q 596 719 578 719 l 596 719 l 740 719 q 758 701 758 719 l 758 701 l 758 18 q 740 0 758 0 l 740 0 l 610 0 q 590 18 590 0 l 590 18 l 586 100 q 483 15 546 43 q 351 -14 421 -14 z "},"v":{"ha":808,"x_min":21,"x_max":788,"o":"m 450 0 l 358 0 q 338 14 344 0 l 338 14 l 31 699 q 44 719 21 719 l 44 719 l 217 719 q 238 706 232 719 l 238 706 l 410 268 l 582 706 q 603 719 588 719 l 603 719 l 764 719 q 778 699 788 719 l 778 699 l 471 14 q 450 0 464 0 l 450 0 z "},"w":{"ha":1174,"x_min":22,"x_max":1151,"o":"m 393 0 l 301 0 q 281 14 285 0 l 281 14 l 29 699 q 44 719 22 719 l 44 719 l 218 719 q 238 704 233 719 l 238 704 l 360 307 l 528 706 q 549 719 535 719 l 549 719 l 640 719 q 661 706 656 719 l 661 706 l 821 317 l 950 704 q 971 719 954 719 l 971 719 l 1129 719 q 1144 699 1151 719 l 1144 699 l 893 14 q 872 0 889 0 l 872 0 l 781 0 q 760 14 765 0 l 760 14 l 592 425 l 414 14 q 393 0 407 0 l 393 0 z "},"x":{"ha":779,"x_min":32,"x_max":749,"o":"m 203 0 l 49 0 q 35 6 39 0 q 38 22 32 13 l 38 22 l 281 369 l 51 697 q 49 713 46 707 q 63 719 53 719 l 63 719 l 228 719 q 250 708 242 719 l 250 708 l 394 494 l 540 708 q 563 719 549 719 l 563 719 l 717 719 q 731 713 728 719 q 728 697 735 707 l 728 697 l 499 369 l 742 22 q 745 6 749 13 q 731 0 742 0 l 731 0 l 565 0 q 543 11 551 0 l 543 11 l 385 246 l 225 11 q 203 0 217 0 l 203 0 z "},"y":{"ha":807,"x_min":21,"x_max":781,"o":"m 353 -303 l 201 -303 q 188 -282 181 -303 l 188 -282 l 319 46 l 31 699 q 44 719 21 719 l 44 719 l 217 719 q 238 706 232 719 l 238 706 l 413 264 l 583 706 q 604 719 589 719 l 604 719 l 763 719 q 776 714 772 719 q 776 699 781 708 l 776 699 l 374 -289 q 353 -303 368 -303 l 353 -303 z "},"z":{"ha":715,"x_min":57,"x_max":657,"o":"m 639 0 l 75 0 q 57 18 57 0 l 57 18 l 57 61 q 64 83 57 72 l 64 83 l 381 560 l 89 560 q 71 578 71 560 l 71 578 l 71 701 q 89 719 71 719 l 89 719 l 633 719 q 651 701 651 719 l 651 701 l 651 660 q 644 638 651 649 l 644 638 l 329 160 l 639 160 q 657 142 657 160 l 657 142 l 657 18 q 639 0 657 0 l 639 0 z "},"ﬁ":{"ha":892,"x_min":19,"x_max":813,"o":"m 300 0 l 156 0 q 138 18 138 0 l 138 18 l 138 558 l 38 558 q 19 576 19 558 l 19 576 l 19 701 q 38 719 19 719 l 38 719 l 138 719 l 138 765 q 206 974 138 897 q 390 1051 275 1051 l 390 1051 q 565 989 497 1051 l 565 989 q 568 964 576 978 l 568 964 l 506 867 q 481 863 496 850 l 481 863 q 404 888 446 888 l 404 888 q 318 768 318 888 l 318 768 l 318 719 l 778 719 q 796 701 796 719 l 796 701 l 796 18 q 778 0 796 0 l 778 0 l 633 0 q 615 18 615 0 l 615 18 l 615 558 l 318 558 l 318 18 q 300 0 318 0 l 300 0 z m 706 824 l 706 824 q 629 853 660 824 q 599 928 599 882 l 599 928 q 629 1003 599 974 q 706 1032 660 1032 l 706 1032 q 782 1003 751 1032 q 813 928 813 974 l 813 928 q 782 853 813 882 q 706 824 751 824 z "},"ﬂ":{"ha":890,"x_min":19,"x_max":796,"o":"m 300 0 l 156 0 q 138 18 138 0 l 138 18 l 138 558 l 38 558 q 19 576 19 558 l 19 576 l 19 701 q 38 719 19 719 l 38 719 l 138 719 l 138 765 q 206 974 138 897 q 390 1051 275 1051 l 390 1051 q 565 989 497 1051 l 565 989 q 568 964 576 978 l 568 964 l 506 867 q 481 863 496 850 l 481 863 q 404 888 446 888 l 404 888 q 318 768 318 888 l 318 768 l 318 719 l 499 719 q 517 701 517 719 l 517 701 l 517 576 q 499 558 517 558 l 499 558 l 318 558 l 318 18 q 300 0 318 0 l 300 0 z m 778 0 l 633 0 q 615 18 615 0 l 615 18 l 615 1024 q 633 1042 615 1042 l 633 1042 l 778 1042 q 796 1024 796 1042 l 796 1024 l 796 18 q 778 0 796 0 l 778 0 z "},"ﬃ":{"ha":1378,"x_min":19,"x_max":1299,"o":"m 308 0 l 164 0 q 146 18 146 0 l 146 18 l 146 558 l 38 558 q 19 576 19 558 l 19 576 l 19 701 q 38 719 19 719 l 38 719 l 146 719 l 146 765 q 181 917 146 853 q 276 1017 215 982 q 413 1051 336 1051 l 413 1051 q 517 1035 469 1051 q 604 989 564 1018 l 604 989 q 610 964 617 979 l 610 964 l 564 861 q 539 853 557 843 l 539 853 q 480 880 506 872 q 426 888 454 888 l 426 888 q 326 768 326 888 l 326 768 l 326 719 l 624 719 l 624 765 q 692 974 624 897 q 876 1051 761 1051 l 876 1051 q 1051 989 983 1051 l 1051 989 q 1054 964 1063 978 l 1054 964 l 992 867 q 967 863 982 850 l 967 863 q 890 888 932 888 l 890 888 q 804 768 804 888 l 804 768 l 804 719 l 1264 719 q 1282 701 1282 719 l 1282 701 l 1282 18 q 1264 0 1282 0 l 1264 0 l 1119 0 q 1101 18 1101 0 l 1101 18 l 1101 558 l 804 558 l 804 18 q 786 0 804 0 l 786 0 l 642 0 q 624 18 624 0 l 624 18 l 624 558 l 326 558 l 326 18 q 308 0 326 0 l 308 0 z m 1192 824 l 1192 824 q 1115 853 1146 824 q 1085 928 1085 882 l 1085 928 q 1115 1003 1085 974 q 1192 1032 1146 1032 l 1192 1032 q 1268 1003 1238 1032 q 1299 928 1299 974 l 1299 928 q 1268 853 1299 882 q 1192 824 1238 824 z "},"ﬄ":{"ha":1376,"x_min":19,"x_max":1282,"o":"m 308 0 l 164 0 q 146 18 146 0 l 146 18 l 146 558 l 38 558 q 19 576 19 558 l 19 576 l 19 701 q 38 719 19 719 l 38 719 l 146 719 l 146 765 q 180 917 146 853 q 274 1017 214 982 q 413 1051 333 1051 l 413 1051 q 517 1035 469 1051 q 604 989 564 1018 l 604 989 q 610 964 617 979 l 610 964 l 564 861 q 539 853 557 843 l 539 853 q 480 880 506 872 q 426 888 454 888 l 426 888 q 326 768 326 888 l 326 768 l 326 719 l 624 719 l 624 765 q 692 974 624 897 q 876 1051 761 1051 l 876 1051 q 1051 989 983 1051 l 1051 989 q 1054 964 1063 978 l 1054 964 l 992 867 q 967 863 982 850 l 967 863 q 890 888 932 888 l 890 888 q 804 768 804 888 l 804 768 l 804 719 l 985 719 q 1003 701 1003 719 l 1003 701 l 1003 576 q 985 558 1003 558 l 985 558 l 804 558 l 804 18 q 786 0 804 0 l 786 0 l 642 0 q 624 18 624 0 l 624 18 l 624 558 l 326 558 l 326 18 q 308 0 326 0 l 308 0 z m 1264 0 l 1119 0 q 1101 18 1101 0 l 1101 18 l 1101 1024 q 1119 1042 1101 1042 l 1119 1042 l 1264 1042 q 1282 1024 1282 1042 l 1282 1024 l 1282 18 q 1264 0 1282 0 l 1264 0 z "},"ﬀ":{"ha":1044,"x_min":19,"x_max":1126,"o":"m 308 0 l 164 0 q 146 18 146 0 l 146 18 l 146 558 l 38 558 q 19 576 19 558 l 19 576 l 19 701 q 38 719 19 719 l 38 719 l 146 719 l 146 765 q 180 917 146 853 q 274 1017 214 982 q 413 1051 333 1051 l 413 1051 q 517 1035 469 1051 q 604 989 564 1018 l 604 989 q 610 964 617 979 l 610 964 l 564 861 q 539 853 557 843 l 539 853 q 480 880 506 872 q 426 888 454 888 l 426 888 q 326 768 326 888 l 326 768 l 326 719 l 624 719 l 624 765 q 692 974 624 897 q 876 1051 761 1051 l 876 1051 q 1119 899 1046 1051 l 1119 899 q 1110 875 1126 882 l 1110 875 l 997 828 q 974 836 982 821 l 974 836 q 938 876 958 864 q 890 888 918 888 l 890 888 q 804 768 804 888 l 804 768 l 804 719 l 985 719 q 1003 701 1003 719 l 1003 701 l 1003 576 q 985 558 1003 558 l 985 558 l 804 558 l 804 18 q 786 0 804 0 l 786 0 l 642 0 q 624 18 624 0 l 624 18 l 624 558 l 326 558 l 326 18 q 308 0 326 0 l 308 0 z "},"©":{"ha":1197,"x_min":69,"x_max":1128,"o":"m 599 -19 l 599 -19 q 388 19 485 -19 q 219 128 290 57 q 109 296 149 199 q 69 510 69 393 l 69 510 q 109 724 69 626 q 219 892 149 821 q 388 1001 290 963 q 599 1039 485 1039 l 599 1039 q 810 1001 714 1039 q 978 892 907 963 q 1088 724 1049 821 q 1128 510 1128 626 l 1128 510 q 1088 296 1128 393 q 978 128 1049 199 q 810 19 907 57 q 599 -19 714 -19 z m 599 78 l 599 78 q 824 133 728 78 q 972 287 919 189 q 1025 510 1025 385 l 1025 510 q 972 733 1025 636 q 824 886 919 831 q 599 942 728 942 l 599 942 q 374 886 471 942 q 225 733 278 831 q 172 510 172 636 l 172 510 q 225 287 172 385 q 374 133 278 189 q 599 78 471 78 z m 603 224 l 603 224 q 455 260 518 224 q 358 362 392 297 q 324 510 324 426 l 324 510 q 358 658 324 594 q 454 759 392 722 q 600 796 517 796 l 600 796 q 751 758 686 796 q 846 640 817 719 l 846 640 q 833 618 853 622 l 833 618 l 749 594 q 725 606 733 590 l 725 606 q 676 657 707 640 q 607 674 646 674 l 607 674 q 499 625 535 674 q 463 510 463 576 l 463 510 q 499 394 463 442 q 610 346 536 346 l 610 346 q 728 418 694 346 l 728 418 q 750 431 735 435 l 750 431 l 842 406 q 854 383 861 401 l 854 383 q 756 264 824 304 q 603 224 689 224 z "},"®":{"ha":861,"x_min":69,"x_max":792,"o":"m 431 322 l 431 322 q 244 368 325 322 q 116 497 163 414 q 69 686 69 579 l 69 686 q 116 876 69 794 q 244 1004 163 958 q 431 1050 325 1050 l 431 1050 q 617 1004 536 1050 q 745 876 699 958 q 792 686 792 794 l 792 686 q 745 497 792 579 q 617 368 699 414 q 431 322 536 322 z m 431 397 l 431 397 q 583 435 519 397 q 680 540 646 474 q 714 686 714 606 l 714 686 q 680 833 714 768 q 583 937 646 899 q 431 975 519 975 l 431 975 q 278 937 342 975 q 181 833 215 899 q 147 686 147 768 l 147 686 q 181 540 147 606 q 278 435 215 474 q 431 397 342 397 z m 368 528 l 321 528 q 310 539 310 528 l 310 539 l 310 858 q 321 869 310 869 l 321 869 l 431 869 q 535 838 504 869 q 565 760 565 807 l 565 760 q 550 699 565 726 q 499 660 535 672 l 499 660 l 569 542 q 563 528 579 528 l 563 528 l 511 528 q 499 535 503 528 l 499 535 l 431 649 l 428 649 l 379 649 l 379 539 q 368 528 379 528 l 368 528 z m 429 807 l 429 807 l 379 807 l 379 711 l 429 711 q 480 724 465 711 q 494 760 494 738 l 494 760 q 480 794 494 781 q 429 807 465 807 z "},"™":{"ha":1346,"x_min":28,"x_max":1294,"o":"m 786 458 l 656 458 q 638 476 638 458 l 638 476 l 638 1001 q 656 1019 638 1019 l 656 1019 l 789 1019 q 810 1007 804 1019 l 810 1007 l 968 729 l 1125 1007 q 1146 1019 1132 1019 l 1146 1019 l 1276 1019 q 1294 1001 1294 1019 l 1294 1001 l 1294 476 q 1276 458 1294 458 l 1276 458 l 1146 458 q 1128 476 1128 458 l 1128 476 l 1128 744 l 1032 578 q 1011 565 1026 565 l 1011 565 l 914 565 q 893 578 900 565 l 893 578 l 804 731 l 804 476 q 786 458 804 458 l 786 458 z m 375 458 l 231 458 q 213 476 213 458 l 213 476 l 213 858 l 46 858 q 28 876 28 858 l 28 876 l 28 1001 q 46 1019 28 1019 l 46 1019 l 560 1019 q 578 1001 578 1019 l 578 1001 l 578 876 q 560 858 578 858 l 560 858 l 393 858 l 393 476 q 375 458 393 458 l 375 458 z "},"📷":{"ha":1389,"x_min":250,"x_max":1138,"o":"m 1079 81 l 307 81 q 267 98 285 81 q 250 139 250 115 l 250 139 l 250 775 q 267 817 250 800 q 307 835 285 835 l 307 835 l 479 835 l 524 899 q 574 924 540 924 l 574 924 l 813 924 q 858 900 842 924 l 858 900 l 908 835 l 1079 835 q 1120 817 1103 835 q 1138 775 1138 800 l 1138 775 l 1138 139 q 1120 98 1138 115 q 1079 81 1103 81 l 1079 81 z m 693 267 l 693 267 q 790 292 746 267 q 859 361 833 318 q 885 457 885 404 l 885 457 q 859 555 885 511 q 790 624 833 599 q 693 650 746 650 l 693 650 q 598 624 642 650 q 528 555 554 599 q 503 457 503 511 l 503 457 q 528 361 503 404 q 598 292 554 318 q 693 267 642 267 z m 693 317 l 693 317 q 594 358 636 317 q 551 457 551 400 l 551 457 q 594 558 551 517 q 693 599 636 599 l 693 599 q 793 558 751 599 q 835 457 835 517 l 835 457 q 793 358 835 400 q 693 317 751 317 z "},"💬":{"ha":1389,"x_min":260,"x_max":1128,"o":"m 503 61 l 485 22 l 453 54 q 370 155 415 92 q 292 300 325 218 q 260 475 260 382 l 260 475 q 314 709 260 610 q 467 863 368 808 q 700 918 565 918 l 700 918 q 926 872 831 918 q 1075 740 1022 825 q 1128 539 1128 656 l 1128 539 q 1099 390 1128 460 q 1017 266 1069 319 q 897 183 965 213 q 749 153 828 153 l 749 153 l 632 153 q 550 124 582 153 q 503 61 518 96 l 503 61 z m 513 467 l 513 467 q 545 481 532 467 q 558 513 558 494 l 558 513 q 545 547 558 533 q 513 560 532 560 l 513 560 q 481 547 494 560 q 468 513 468 533 l 468 513 q 481 481 468 494 q 513 467 494 467 z m 690 467 l 690 467 q 722 481 708 467 q 736 513 736 494 l 736 513 q 722 547 736 533 q 690 560 708 560 l 690 560 q 659 547 672 560 q 646 513 646 533 l 646 513 q 659 481 646 494 q 690 467 672 467 z m 868 467 l 868 467 q 899 481 886 467 q 913 513 913 494 l 913 513 q 899 547 913 533 q 868 560 886 560 l 868 560 q 835 547 847 560 q 822 513 822 533 l 822 513 q 835 481 822 494 q 868 467 847 467 z "},"✉":{"ha":1389,"x_min":249,"x_max":1138,"o":"m 1031 106 l 358 106 q 281 137 313 106 q 249 214 249 168 l 249 214 l 249 743 q 281 822 249 789 q 358 854 313 854 l 358 854 l 1031 854 q 1106 822 1075 854 q 1138 743 1138 789 l 1138 743 l 1138 214 q 1106 138 1138 169 q 1031 106 1075 106 l 1031 106 z m 367 694 l 693 419 l 1019 694 q 1031 717 1031 703 l 1031 717 q 1025 733 1031 724 q 1006 742 1019 742 l 1006 742 q 988 735 996 742 l 988 735 l 693 486 l 399 735 q 381 742 389 742 l 381 742 q 361 733 367 742 q 356 717 356 724 l 356 717 q 367 694 356 703 l 367 694 z "},"🕓":{"ha":1389,"x_min":228,"x_max":1160,"o":"m 693 13 l 693 13 q 513 49 597 13 q 365 149 429 85 q 264 297 300 213 q 228 476 228 381 l 228 476 q 264 656 228 572 q 365 804 300 740 q 513 904 429 868 q 693 940 597 940 l 693 940 q 874 904 789 940 q 1023 803 958 868 q 1124 655 1088 739 q 1160 475 1160 571 l 1160 475 q 1124 296 1160 379 q 1023 149 1088 213 q 874 49 958 85 q 693 13 789 13 z m 668 461 l 842 361 l 865 406 l 718 490 l 718 731 l 668 731 l 668 461 z "},"🎵":{"ha":1389,"x_min":275,"x_max":1025,"o":"m 404 49 l 404 49 q 314 88 353 49 q 275 179 275 126 l 275 179 q 313 274 275 235 q 404 314 351 314 l 404 314 q 472 296 436 314 l 472 296 l 472 744 q 485 781 472 764 q 517 803 499 797 l 517 803 l 951 918 q 1001 907 978 925 q 1025 863 1025 889 l 1025 863 l 1025 313 q 986 217 1025 257 q 890 178 947 178 l 890 178 q 799 215 839 178 q 760 313 760 253 l 760 313 q 799 404 760 365 q 890 443 839 443 l 890 443 q 960 425 925 443 l 960 425 l 960 724 l 540 611 l 540 179 q 500 88 540 128 q 404 49 460 49 z "},"📞":{"ha":1389,"x_min":236,"x_max":1154,"o":"m 940 19 l 940 19 q 720 83 839 19 q 483 265 601 147 l 483 265 q 351 426 407 343 q 266 590 296 510 q 236 732 236 669 l 236 732 q 272 839 236 801 l 272 839 l 342 910 q 375 931 357 925 q 411 938 393 938 l 411 938 q 454 929 433 938 q 490 903 475 921 l 490 903 l 597 781 q 611 744 611 764 l 611 744 q 592 704 611 724 l 592 704 l 499 608 q 519 559 500 592 q 569 489 539 526 q 633 417 599 451 l 633 417 q 706 352 668 382 q 775 303 743 322 q 824 283 807 285 l 824 283 l 918 378 q 961 396 936 396 l 961 396 q 1000 381 982 396 l 1000 381 l 1121 272 q 1154 197 1154 243 l 1154 197 q 1126 128 1154 156 l 1126 128 l 1057 57 q 1008 29 1039 39 q 940 19 976 19 z "},"🔍":{"ha":1389,"x_min":240,"x_max":1149,"o":"m 1149 88 l 1079 18 l 825 271 q 606 196 732 196 l 606 196 q 465 224 531 196 q 348 303 399 253 q 269 420 297 354 q 240 561 240 486 l 240 561 q 269 703 240 636 q 347 819 297 769 q 464 898 397 869 q 606 926 531 926 l 606 926 q 790 877 707 926 q 923 745 874 828 q 972 561 972 663 l 972 561 q 896 342 972 438 l 896 342 l 1149 88 z m 606 296 l 606 296 q 739 331 679 296 q 834 427 799 367 q 869 561 869 488 l 869 561 q 834 694 869 635 q 739 790 799 754 q 606 825 679 825 l 606 825 q 473 790 533 825 q 377 694 413 754 q 342 561 342 635 l 342 561 q 377 428 342 489 q 473 332 413 368 q 606 296 533 296 z "},"🛍":{"ha":1389,"x_min":314,"x_max":1074,"o":"m 1074 249 l 314 249 l 314 760 q 331 801 314 783 q 371 818 349 818 l 371 818 l 513 818 q 537 910 513 869 q 602 976 561 951 q 693 1000 643 1000 l 693 1000 q 785 976 744 1000 q 851 910 826 951 q 875 818 875 869 l 875 818 l 1015 818 q 1056 801 1039 818 q 1074 760 1074 783 l 1074 760 l 1074 249 z m 578 818 l 578 818 l 810 818 q 776 901 810 867 q 693 935 742 935 l 693 935 q 612 901 646 935 q 578 818 578 867 z m 1015 24 l 371 24 q 331 41 349 24 q 314 83 314 58 l 314 83 l 314 200 l 1074 200 l 1074 83 q 1056 41 1074 58 q 1015 24 1039 24 l 1015 24 z "},"☻":{"ha":1389,"x_min":228,"x_max":1160,"o":"m 693 13 l 693 13 q 513 49 597 13 q 365 149 429 85 q 264 297 300 213 q 228 476 228 381 l 228 476 q 264 656 228 572 q 365 804 300 740 q 513 904 429 868 q 693 940 597 940 l 693 940 q 874 904 789 940 q 1023 803 958 868 q 1124 655 1088 739 q 1160 475 1160 571 l 1160 475 q 1124 296 1160 379 q 1023 149 1088 213 q 874 49 958 85 q 693 13 789 13 z m 550 517 l 550 517 q 584 532 569 517 q 599 568 599 547 l 599 568 q 584 603 599 588 q 550 618 569 618 l 550 618 q 513 603 528 618 q 497 568 497 588 l 497 568 q 513 532 497 547 q 550 517 528 517 z m 840 517 l 840 517 q 877 532 863 517 q 892 568 892 547 l 892 568 q 877 603 892 588 q 840 618 863 618 l 840 618 q 806 603 821 618 q 792 568 792 588 l 792 568 q 806 532 792 547 q 840 517 821 517 z m 694 272 l 694 272 q 801 299 751 272 q 878 376 850 326 l 878 376 q 868 410 890 399 l 868 410 q 848 412 860 414 q 832 401 836 410 l 832 401 q 776 342 814 364 q 694 321 738 321 l 694 321 q 616 343 651 321 q 557 401 581 365 l 557 401 q 540 412 551 410 q 521 410 529 414 l 521 410 q 513 376 499 397 l 513 376 q 592 301 544 329 q 694 272 639 272 z "},"🔈":{"ha":1389,"x_min":199,"x_max":1189,"o":"m 785 21 l 785 21 q 760 29 771 21 l 760 29 l 514 268 l 232 268 q 208 277 218 268 q 199 299 199 286 l 199 299 l 199 658 q 208 681 199 672 q 232 690 218 690 l 232 690 l 514 690 l 760 929 q 786 940 771 940 l 786 940 q 808 930 799 940 q 817 904 817 919 l 817 904 l 817 51 q 785 21 817 21 z m 1022 169 l 1022 169 l 988 226 q 1088 333 1051 267 q 1125 475 1125 399 l 1125 475 q 988 722 1125 626 l 988 722 l 1022 778 q 1144 648 1099 731 q 1189 475 1189 565 l 1189 475 q 1145 301 1189 382 q 1022 169 1101 221 z m 943 297 l 943 297 l 907 353 q 974 481 974 400 l 974 481 q 907 594 974 549 l 907 594 l 943 650 q 1039 474 1039 582 l 1039 474 q 1013 375 1039 422 q 943 297 988 328 z "},"👤":{"ha":1389,"x_min":261,"x_max":1129,"o":"m 1129 0 l 261 0 l 261 126 q 278 192 261 161 q 324 242 294 224 l 324 242 l 565 392 q 574 400 568 394 q 581 422 581 406 l 581 422 q 576 449 581 438 q 567 471 571 461 l 567 471 q 553 497 561 482 q 535 531 544 513 l 535 531 q 525 550 529 540 q 514 569 521 560 l 514 569 q 480 610 490 585 q 469 658 469 636 l 469 658 q 474 686 469 674 q 482 707 478 699 l 482 707 q 545 874 486 810 q 696 938 604 938 l 696 938 q 847 874 788 938 q 908 707 906 810 l 908 707 q 917 686 913 699 q 921 658 921 674 l 921 658 q 910 610 921 636 q 876 569 900 585 l 876 569 q 866 550 871 560 q 856 531 861 540 l 856 531 q 838 497 846 513 q 824 471 831 482 l 824 471 q 815 447 819 461 q 810 422 810 433 l 810 422 q 816 400 810 406 q 825 392 822 394 l 825 392 l 1067 243 q 1113 193 1096 225 q 1129 126 1129 161 l 1129 126 l 1129 0 z "},"":{"ha":1389,"x_min":204,"x_max":1183,"o":"m 963 0 l 425 0 q 314 30 364 0 q 234 110 264 60 q 204 221 204 160 l 204 221 l 204 758 q 234 869 204 819 q 314 949 264 919 q 425 979 364 979 l 425 979 l 963 979 q 1074 949 1024 979 q 1153 869 1124 919 q 1183 758 1183 819 l 1183 758 l 1183 221 q 1153 110 1183 160 q 1074 30 1124 60 q 963 0 1024 0 l 963 0 z m 676 178 l 676 178 q 685 180 681 178 q 694 183 689 182 l 694 183 q 738 208 707 189 q 809 253 769 226 q 887 312 849 281 q 951 372 925 343 l 951 372 q 1021 535 1021 453 l 1021 535 q 977 669 1021 608 q 859 765 933 729 q 694 801 785 801 l 694 801 q 531 765 606 801 q 413 669 457 729 q 368 535 368 608 l 368 535 q 403 415 368 469 q 501 322 439 360 q 640 274 563 285 l 640 274 q 658 269 649 272 q 669 258 667 265 l 669 258 q 672 244 672 253 q 669 228 671 235 l 669 228 q 664 192 664 194 l 664 192 q 666 183 664 188 q 676 178 668 178 z m 572 451 l 481 451 q 475 458 475 451 l 475 458 l 475 600 q 481 607 475 607 l 481 607 l 504 607 q 510 600 510 607 l 510 600 l 510 488 l 572 488 q 578 481 578 488 l 578 481 l 578 458 q 572 451 578 451 l 572 451 z m 628 451 l 604 451 q 597 458 597 451 l 597 458 l 597 600 q 604 607 597 607 l 604 607 l 628 607 q 635 600 635 607 l 635 600 l 635 458 q 628 451 635 451 l 628 451 z m 686 451 l 663 451 q 657 458 657 451 l 657 458 l 657 600 q 663 607 657 607 l 663 607 l 685 607 q 692 601 689 607 l 692 601 l 756 515 l 756 600 q 761 607 756 607 l 761 607 l 786 607 q 792 600 792 607 l 792 600 l 792 458 q 786 451 792 451 l 786 451 l 763 451 q 756 456 758 451 l 756 456 l 692 542 l 692 458 q 686 451 692 451 l 686 451 z m 911 451 l 821 451 q 814 458 814 451 l 814 458 l 814 600 q 821 607 814 607 l 821 607 l 911 607 q 918 600 918 607 l 918 600 l 918 578 q 911 569 918 569 l 911 569 l 850 569 l 850 546 l 911 546 q 918 540 918 546 l 918 540 l 918 517 q 911 511 918 511 l 911 511 l 850 511 l 850 488 l 911 488 q 918 481 918 488 l 918 481 l 918 458 q 911 451 918 451 l 911 451 z "},"":{"ha":2022,"x_min":225,"x_max":1797,"o":"m 974 204 l 892 204 q 869 225 869 204 l 869 225 l 869 732 q 892 753 869 753 l 892 753 l 971 753 q 996 740 988 753 l 996 740 l 1222 431 l 1222 732 q 1243 753 1222 753 l 1243 753 l 1328 753 q 1343 747 1336 753 q 1350 732 1350 742 l 1350 732 l 1350 225 q 1343 210 1350 215 q 1328 204 1336 204 l 1328 204 l 1246 204 q 1221 217 1229 204 l 1221 217 l 994 526 l 994 225 q 974 204 994 204 l 974 204 z m 572 204 l 247 204 q 232 210 239 204 q 225 225 225 215 l 225 225 l 225 732 q 232 747 225 742 q 247 753 239 753 l 247 753 l 331 753 q 353 732 353 753 l 353 732 l 353 331 l 572 331 q 594 308 594 331 l 594 308 l 594 225 q 572 204 594 204 l 572 204 z m 768 204 l 686 204 q 665 225 665 204 l 665 225 l 665 732 q 686 753 665 753 l 686 753 l 768 753 q 790 732 790 753 l 790 732 l 790 225 q 768 204 790 204 l 768 204 z m 1775 204 l 1450 204 q 1435 210 1442 204 q 1428 225 1428 215 l 1428 225 l 1428 732 q 1435 747 1428 742 q 1450 753 1442 753 l 1450 753 l 1775 753 q 1790 747 1783 753 q 1797 732 1797 742 l 1797 732 l 1797 649 q 1790 633 1797 639 q 1775 628 1783 628 l 1775 628 l 1553 628 l 1553 542 l 1775 542 q 1790 535 1783 542 q 1797 521 1797 529 l 1797 521 l 1797 436 q 1790 422 1797 428 q 1775 415 1783 415 l 1775 415 l 1553 415 l 1553 331 l 1775 331 q 1790 324 1783 331 q 1797 308 1797 318 l 1797 308 l 1797 225 q 1790 210 1797 215 q 1775 204 1783 204 l 1775 204 z "},"":{"ha":1553,"x_min":69,"x_max":1483,"o":"m 246 308 l 246 308 q 119 358 169 308 q 69 486 69 407 l 69 486 q 119 613 69 564 q 246 663 169 663 l 246 663 q 374 613 324 663 q 424 486 424 564 l 424 486 q 374 358 424 407 q 246 308 324 308 z m 779 329 l 575 329 q 569 335 569 329 l 569 335 l 569 636 q 575 643 569 643 l 575 643 l 622 643 q 628 636 628 643 l 628 636 l 628 385 l 779 385 q 783 379 783 385 l 783 379 l 783 335 q 779 329 783 329 l 779 329 z m 874 329 l 828 329 q 822 335 822 329 l 822 335 l 822 636 q 828 643 822 643 l 828 643 l 874 643 q 879 636 879 643 l 879 636 l 879 335 q 874 329 879 329 l 874 329 z m 996 329 l 951 329 q 946 335 946 329 l 946 335 l 946 636 q 951 643 946 643 l 951 643 l 1000 643 q 1007 639 1004 643 l 1007 639 l 1147 424 l 1147 636 q 1153 643 1147 643 l 1153 643 l 1196 643 q 1201 636 1201 643 l 1201 636 l 1201 335 q 1196 329 1201 329 l 1196 329 l 1149 329 q 1142 333 1144 329 l 1142 333 l 1001 550 l 1001 335 q 996 329 1001 329 l 996 329 z m 1476 329 l 1274 329 q 1268 335 1268 329 l 1268 335 l 1268 636 q 1274 643 1268 643 l 1274 643 l 1472 643 q 1478 636 1478 643 l 1478 636 l 1478 593 q 1472 588 1478 588 l 1472 588 l 1325 588 l 1325 517 l 1458 517 q 1463 511 1463 517 l 1463 511 l 1463 468 q 1458 464 1463 464 l 1458 464 l 1325 464 l 1325 383 l 1476 383 q 1483 378 1483 383 l 1483 378 l 1483 335 q 1476 329 1483 329 l 1476 329 z m 246 340 l 246 340 q 350 381 311 340 q 389 486 389 422 l 389 486 q 350 590 389 549 q 246 631 311 631 l 246 631 q 142 590 182 631 q 103 486 103 549 l 103 486 q 142 381 103 422 q 246 340 182 340 z m 247 390 l 247 390 q 179 417 204 390 q 154 486 154 443 l 154 486 q 179 554 154 528 q 246 581 204 581 l 246 581 q 297 569 275 581 q 329 529 319 557 l 329 529 q 325 522 331 525 l 325 522 l 296 514 q 288 518 292 513 l 288 518 q 249 540 272 540 l 249 540 q 213 524 225 540 q 200 486 200 508 l 200 486 q 213 447 200 464 q 250 431 225 431 l 250 431 q 289 454 281 431 l 289 454 q 296 458 290 460 l 296 458 l 328 450 q 332 443 333 449 l 332 443 q 299 403 322 417 q 247 390 275 390 z "}}}
